<?xml version="1.0" encoding="utf-8"?>
<!-- Generator: Adobe Illustrator 21.0.0, SVG Export Plug-In . SVG Version: 6.00 Build 0)  -->
<svg version="1.1" id="Layer_1" xmlns="http://www.w3.org/2000/svg" xmlns:xlink="http://www.w3.org/1999/xlink" x="0px" y="0px"
	 viewBox="0 0 20 20" style="enable-background:new 0 0 20 20;" xml:space="preserve">
<style type="text/css">
	.st0{fill:#D3A9BA;}
</style>
<path class="st0" d="M8.7,1.3C8.7,0.6,9.3,0,10,0l0,0c0.7,0,1.3,0.6,1.3,1.3l0,0c0,0.7-0.6,1.3-1.3,1.3l0,0C9.2,2.6,8.7,2,8.7,1.3z
	 M17.4,1.3C17.4,0.6,18,0,18.7,0l0,0C19.4,0,20,0.6,20,1.3l0,0c0,0.7-0.6,1.3-1.3,1.3l0,0C17.9,2.6,17.4,2,17.4,1.3z M0,1.3
	C0,0.6,0.6,0,1.3,0l0,0C2,0,2.6,0.6,2.6,1.3l0,0C2.6,2,2,2.6,1.3,2.6l0,0C0.5,2.6,0,2,0,1.3z M17.4,18.7c0-0.7,0.6-1.3,1.3-1.3l0,0
	c0.7,0,1.3,0.6,1.3,1.3l0,0c0,0.7-0.6,1.3-1.3,1.3l0,0C17.9,20,17.4,19.4,17.4,18.7z M0,18.7c0-0.7,0.6-1.3,1.3-1.3l0,0
	c0.7,0,1.3,0.6,1.3,1.3l0,0C2.6,19.4,2,20,1.3,20l0,0C0.5,20,0,19.4,0,18.7z M17.4,10c0-0.7,0.6-1.3,1.3-1.3l0,0
	c0.7,0,1.3,0.6,1.3,1.3l0,0c0,0.7-0.6,1.3-1.3,1.3l0,0C17.9,11.3,17.4,10.7,17.4,10z M8.7,18.7c0-0.7,0.6-1.3,1.3-1.3l0,0
	c0.7,0,1.3,0.6,1.3,1.3l0,0c0,0.7-0.6,1.3-1.3,1.3l0,0C9.2,20,8.7,19.4,8.7,18.7z M0,10c0-0.7,0.6-1.3,1.3-1.3l0,0
	C2,8.7,2.6,9.3,2.6,10l0,0c0,0.7-0.6,1.3-1.3,1.3l0,0C0.5,11.3,0,10.7,0,10z"/>
</svg>

