<?xml version="1.0" encoding="utf-8"?>
<!-- Generator: Adobe Illustrator 22.0.1, SVG Export Plug-In . SVG Version: 6.00 Build 0)  -->
<svg version="1.1" id="Layer_1" xmlns="http://www.w3.org/2000/svg" xmlns:xlink="http://www.w3.org/1999/xlink" x="0px" y="0px"
	 viewBox="0 0 512.9 246" style="enable-background:new 0 0 512.9 246;" xml:space="preserve">
<style type="text/css">
	.st0{fill:#0037FF;}
	.st1{fill:#FF0000;}
</style>
<g style="fill: #0af; transform: translateX(-50%);">
	<rect y="0.6" class="st0" width="512.9" height="245.4"/>
	<path class="st1" d="M0,0.6h25.2v43.2L64.8,0.6h31.8L59.1,39.9l40.5,66.6H69.8l-28.3-48L25.3,75.4v31H0.1V0.6H0z M129.6,0.6v105.9
		h-23.1V0.6H129.6z M150.9,0.5h22.8v17.8h-22.8V0.5z M150.9,28.1h22.8v78.4h-22.8V28.1z M217.3,36.5c2.7-3.1,8.7-10.2,22.2-10.2
		c12.9,0,17.5,4.8,21.7,9.1c4.5-3.8,10.8-9.1,23.2-9.1c12.9,0,19.5,6.4,21.9,11.2c2,4.2,2.1,9.6,2.1,18v51h-22.8V65.4
		c0-4.5,0-10.3-0.9-13.3c-2.1-6.6-8.2-7-10-7c-2.2,0-5.2,0.6-7.5,2.4c-4.4,3.4-4.4,7.9-4.4,16.5v42.6H240V60.3
		c0-3.4-0.2-8.1-2.2-11.1c-1.8-2.4-5.2-4-9-4c-1.8,0-4.2,0.5-6.3,1.8c-5.1,3.5-5.2,9.8-5.2,15.1v44.5h-22.8V28.5h22.8V36.5z
		 M332.2,5.6h22.9V30h15.1v14.1h-15.3v35.2c-0.1,4.8-0.1,8.8,6,8.8l8.2-0.3v18c-5,0.8-7.9,1.2-12.1,1.2c-7.9,0-16.6-0.5-21.6-7.6
		c-3.1-4.6-3.3-10.2-3.3-17.7V44h-11.4V29.9h11.4L332.2,5.6L332.2,5.6z M508.3,89.8c-7,0-9.3-2.5-11.4-4.9
		c6.4-10.8,7.6-13.6,11.4-25.2l-18.7-6.9c-1.6,7.6-2.2,9.4-5.1,15.7c-5.9-8.1-7.5-10.3-14.4-21c9.4-3.9,19.8-11.8,19.8-24.7
		c0-12-9-22.8-25.8-22.8C446.3,0,437,10.2,437,23.2c0,6.3,3,11.5,6.9,18.1c-7.3,3.3-18.3,8.2-23.7,21.4c-1.5,4-2.2,8.1-2.2,12
		c0,16.5,11.8,32.7,36.3,32.7c14.5,0,23.4-5.2,28.2-8.1c5.4,5.2,8.5,7,18.6,7h11.8V89.5C511.3,89.7,509.8,89.8,508.3,89.8z
		 M463.6,16.1c4.5,0,7.3,2.7,7.3,6.4c0,5.1-4.6,8.5-9.7,11.2c-3.5-5.5-5.1-8.2-5.1-11.4C456.1,18.5,459.7,16.1,463.6,16.1z
		 M456.6,89.7c-11.4,0-15.7-9.9-15.7-15.7c0-9.1,7.6-14.1,12.3-17.1l18.1,27.9C466.9,87.1,462.3,89.7,456.6,89.7z M119.2,201.4
		c7.2-2.7,21.7-8,21.7-29.2c0-9.6-3.4-18-8.4-23.5c-9.8-10.5-23.5-10.6-34.6-10.8H50.2v105.9h26.5V206h16.7l21,37.8h29.2
		L119.2,201.4z M98.7,186.3H76.8v-28.6h22.5c5.5,0.2,15.3,0.6,15.3,14.1C114.6,185.9,102.4,186.2,98.7,186.3z M196.6,163.1
		c-30-1.6-45.1,17.4-45.1,41.4c0,28.9,20.1,41.5,42.1,41.5c30.6,0,42-21.7,42-41.5C235.6,190.2,228.6,164.9,196.6,163.1z
		 M193.6,227.7c-12.9,0-18.9-10.9-18.9-23.4c0-5.4,1-10.8,3.9-15.3c3.1-4.9,7-7.2,13.6-7.6c3.3-0.3,8.7-0.1,13.5,4.3
		c4.3,4.2,6.4,11,6.4,19.6C212.2,217.6,206.1,227.7,193.6,227.7z M298.8,137.9v33.4c-4.2-3.1-10.3-7.9-20.7-7.9
		c-15.7,0-32.5,12.1-32.5,41.7c0,5.1,0,20.8,11.4,31.8c6.1,6,14.2,9,22,9c11.5,0,17.5-5.8,21.1-9.4v7.3h21V137.9H298.8z
		 M291.1,226.5c-2.2,1.5-4.9,2.4-7.5,2.4c-11.7,0-14.7-13.3-14.7-24.3c0-3.5,0-24,16.3-24c4.6,0,7.9,3.3,9,4.6
		c4.9,6,4.9,15.8,4.9,19.3C299.2,208.9,299.2,220.9,291.1,226.5z M342.1,137.7h22.8v17.8h-22.8V137.7z M342.1,165.3h22.8v78.4h-22.8
		V165.3z M409.5,172.5c2.2-2.4,3.8-4.2,7.8-6.1c3.6-1.5,8.7-2.9,14.2-2.9c4.6,0,9.9,0.9,13.9,3.1c8.2,4.3,10.3,11.4,10.3,23.5v53.5
		h-22.9v-44.1c0-7-0.1-9.6-1-11.7c-1.8-4.2-5.8-6-10.3-6c-12.1,0-12.1,9.7-12.1,19.5v42.3h-23.1v-78.1h23.2L409.5,172.5L409.5,172.5
		z"/>
</g>
</svg>
