<svg version="1.1" height="0" width="0">
	<defs>
		<clipPath id="mask" clipPathUnits="objectBoundingBox">
				<path d="M10.2,22.1h25.2v43.2L75,22.1h31.8L69.3,61.4l40.5,66.6H79.9L51.6,80L35.4,96.9v31H10.2V22.1z M139.8,22.1
					v105.9h-23.1V22.1H139.8z M161.1,21.9h22.8v17.8h-22.8V21.9z M161.1,49.5h22.8v78.4h-22.8V49.5z M227.5,57.9
					c2.7-3.1,8.7-10.2,22.2-10.2c12.9,0,17.5,4.8,21.7,9.1c4.5-3.8,10.8-9.1,23.2-9.1c12.9,0,19.5,6.4,21.9,11.2c2,4.2,2.1,9.6,2.1,18
					v51h-22.8V86.9c0-4.5,0-10.3-0.9-13.3c-2.1-6.6-8.2-7-10-7c-2.2,0-5.2,0.6-7.5,2.4c-4.4,3.4-4.4,7.9-4.4,16.5v42.6h-22.8V81.6
					c0-3.4-0.2-8.1-2.2-11.1c-1.8-2.4-5.2-4-9-4c-1.8,0-4.2,0.5-6.3,1.8c-5.1,3.5-5.2,9.8-5.2,15.1v44.5h-22.8V49.8h22.8V57.9z
					 M342.4,27h22.9v24.4h15.1v14.1h-15.3v35.2c-0.1,4.8-0.1,8.8,6,8.8l8.2-0.3v18c-5,0.8-7.9,1.2-12.1,1.2c-7.9,0-16.6-0.5-21.6-7.6
					c-3.1-4.6-3.3-10.2-3.3-17.7V65.4H331V51.3h11.4V27z M518.5,111.3c-7,0-9.3-2.5-11.4-4.9c6.4-10.8,7.6-13.6,11.4-25.2l-18.7-6.9
					c-1.6,7.6-2.2,9.4-5.1,15.7c-5.9-8.1-7.5-10.3-14.4-21c9.4-3.9,19.8-11.8,19.8-24.7c0-12-9-22.8-25.8-22.8
					c-17.8,0-27.1,10.2-27.1,23.2c0,6.3,3,11.5,6.9,18.1c-7.3,3.3-18.3,8.2-23.7,21.4c-1.5,4-2.2,8.1-2.2,12c0,16.5,11.8,32.7,36.3,32.7
					c14.5,0,23.4-5.2,28.2-8.1c5.4,5.2,8.5,7,18.6,7H523v-16.8C521.5,111.2,520,111.3,518.5,111.3z M473.8,37.5c4.5,0,7.3,2.7,7.3,6.4
					c0,5.1-4.6,8.5-9.7,11.2c-3.5-5.5-5.1-8.2-5.1-11.4C466.3,39.9,469.9,37.5,473.8,37.5z M466.8,111.2c-11.4,0-15.7-9.9-15.7-15.7
					c0-9.1,7.6-14.1,12.3-17.1l18.1,27.9C477.1,108.6,472.5,111.2,466.8,111.2z M129.4,222.9c7.2-2.7,21.7-8,21.7-29.2
					c0-9.6-3.4-18-8.4-23.5c-9.8-10.5-23.5-10.6-34.6-10.8H60.4v105.9H87v-37.8h16.6l21,37.8h29.2L129.4,222.9z M108.9,207.8H87v-28.6
					h22.5c5.5,0.2,15.3,0.6,15.3,14.1C124.8,207.3,112.6,207.6,108.9,207.8z M206.8,184.5c-30-1.6-45.1,17.4-45.1,41.4
					c0,28.9,20.1,41.5,42.1,41.5c30.6,0,42-21.7,42-41.5C245.8,211.7,238.8,186.3,206.8,184.5z M203.8,249.1
					c-12.9,0-18.9-10.9-18.9-23.4c0-5.4,1-10.8,3.9-15.3c3.1-4.9,7-7.2,13.6-7.6c3.3-0.3,8.7-0.1,13.5,4.3c4.3,4.2,6.4,11,6.4,19.6
					C222.4,239.1,216.3,249.1,203.8,249.1z M309,159.3v33.4c-4.2-3.1-10.3-7.9-20.7-7.9c-15.7,0-32.5,12.1-32.5,41.7
					c0,5.1,0,20.8,11.4,31.8c6.1,6,14.2,9,22,9c11.5,0,17.5-5.8,21.1-9.4v7.3h21V159.3H309z M301.3,248c-2.2,1.5-4.9,2.4-7.5,2.4
					c-11.7,0-14.7-13.3-14.7-24.3c0-3.5,0-24,16.3-24c4.6,0,7.9,3.3,9,4.6c4.9,6,4.9,15.8,4.9,19.3C309.4,230.4,309.4,242.4,301.3,248z
					 M352.3,159.2h22.8V177h-22.8V159.2z M352.3,186.8h22.8v78.4h-22.8V186.8z M419.7,194c2.2-2.4,3.8-4.2,7.8-6.1
					c3.6-1.5,8.7-2.9,14.2-2.9c4.6,0,9.9,0.9,13.9,3.1c8.2,4.3,10.3,11.4,10.3,23.5v53.5h-22.9v-44.1c0-7-0.1-9.6-1-11.7
					c-1.8-4.2-5.8-6-10.3-6c-12.1,0-12.1,9.7-12.1,19.5v42.3h-23.1v-78.1h23.2V194z"/>
			</clipPath>
		</def>
</svg>
