<svg version="1.1" id="klimt-rodan-svg" x="0px" y="0px" viewBox="0 0 527.2 302.7">
	<defs>
		<clipPath class="kr-mask" id="klimt-rodan-clip-path" d="M10.2,22.1h25.2v43.2L75,22.1h31.8L69.3,61.4l40.5,66.6H79.9L51.6,80L35.4,96.9v31H10.2V22.1z M139.8,22.1v105.9h-23.1V22.1
			H139.8z M161.1,21.9h22.8v17.8h-22.8V21.9z M161.1,49.5h22.8v78.4h-22.8V49.5z M227.5,57.9c2.7-3.1,8.7-10.2,22.2-10.2
			c12.9,0,17.5,4.8,21.7,9.1c4.5-3.8,10.8-9.1,23.2-9.1c12.9,0,19.5,6.4,21.9,11.2c2,4.2,2.1,9.6,2.1,18v51h-22.8V86.9
			c0-4.5,0-10.3-0.9-13.3c-2.1-6.6-8.2-7-10-7c-2.2,0-5.2,0.6-7.5,2.4c-4.4,3.4-4.4,7.9-4.4,16.5v42.6h-22.8V81.6
			c0-3.4-0.2-8.1-2.2-11.1c-1.8-2.4-5.2-4-9-4c-1.8,0-4.2,0.5-6.3,1.8c-5.1,3.5-5.2,9.8-5.2,15.1v44.5h-22.8V49.8h22.8V57.9z
			 M342.4,27h22.9v24.4h15.1v14.1h-15.3v35.2c-0.1,4.8-0.1,8.8,6,8.8l8.2-0.3v18c-5,0.8-7.9,1.2-12.1,1.2c-7.9,0-16.6-0.5-21.6-7.6
			c-3.1-4.6-3.3-10.2-3.3-17.7V65.4H331V51.3h11.4V27z M511.2,127.9c-10,0-13.2-1.8-18.6-7c-4.8,2.9-13.6,8.1-28.2,8.1
			c-24.4,0-36.3-16.2-36.3-32.7c0-3.9,0.8-7.9,2.2-12c5.4-13.2,16.3-18.1,23.7-21.4c-3.9-6.6-6.9-11.8-6.9-18.1
			c0-13,9.3-23.2,27.1-23.2c16.8,0,25.8,10.8,25.8,22.8c0,12.9-10.3,20.8-19.8,24.7c6.9,10.6,8.5,12.9,14.4,21
			c2.8-6.3,3.4-8.1,5.1-15.7l18.7,6.9c-3.7,11.5-4.9,14.4-11.4,25.2c2.1,2.4,4.4,4.9,11.4,4.9c1.5,0,3-0.1,4.5-0.1v16.8H511.2z
			 M463.3,78.3c-4.6,3-12.3,7.9-12.3,17.1c0,5.9,4.4,15.7,15.7,15.7c5.7,0,10.3-2.5,14.7-4.9L463.3,78.3z M481.2,44
			c0-3.8-2.9-6.4-7.3-6.4c-3.9,0-7.5,2.4-7.5,6.3c0,3.1,1.6,5.8,5.1,11.4C476.5,52.5,481.2,49.1,481.2,44z M60.4,159.3h47.7
			c11.1,0.1,24.9,0.3,34.6,10.8c4.9,5.5,8.4,13.9,8.4,23.5c0,21.3-14.5,26.5-21.7,29.2l24.4,42.3h-29.2l-21-37.8H87v37.8H60.4V159.3z
			 M87,179.1v28.6h21.9c3.8-0.2,15.9-0.5,15.9-14.5c0-13.5-9.7-13.9-15.3-14.1H87z M245.8,225.9c0,19.8-11.4,41.5-42,41.5
			c-22,0-42.1-12.6-42.1-41.5c0-24,15.1-43,45.1-41.4C238.8,186.3,245.8,211.7,245.8,225.9z M188.8,210.5c-2.9,4.5-3.9,9.9-3.9,15.3
			c0,12.4,6,23.4,18.9,23.4c12.4,0,18.6-10,18.6-22.3c0-8.7-2.1-15.4-6.4-19.6c-4.8-4.5-10.2-4.6-13.5-4.3
			C195.9,203.3,192,205.5,188.8,210.5z M331.3,159.3v105.9h-21v-7.3c-3.6,3.6-9.6,9.4-21.1,9.4c-7.8,0-15.9-3-22-9
			c-11.4-11-11.4-26.7-11.4-31.8c0-29.5,16.8-41.7,32.5-41.7c10.3,0,16.5,4.8,20.7,7.9v-33.4H331.3z M309.4,226.1
			c0-3.6,0-13.3-4.9-19.3c-1-1.3-4.3-4.6-9-4.6c-16.3,0-16.3,20.5-16.3,24c0,10.9,3,24.3,14.7,24.3c2.5,0,5.2-0.9,7.5-2.4
			C309.4,242.4,309.4,230.4,309.4,226.1z M352.3,159.2h22.8V177h-22.8V159.2z M352.3,186.8h22.8v78.4h-22.8V186.8z M419.7,194
			c2.2-2.4,3.8-4.2,7.8-6.1c3.6-1.5,8.7-2.9,14.2-2.9c4.6,0,9.9,0.9,13.9,3.1c8.2,4.3,10.3,11.4,10.3,23.5v53.5h-22.9v-44.1
			c0-7-0.1-9.6-1-11.7c-1.8-4.2-5.8-6-10.3-6c-12.1,0-12.1,9.7-12.1,19.5v42.3h-23.1v-78.1h23.2V194z"/>
	</defs>
</svg>
