<?xml version="1.0" encoding="utf-8"?>
<!-- Generator: Adobe Illustrator 22.0.1, SVG Export Plug-In . SVG Version: 6.00 Build 0)  -->
<svg version="1.1" id="Layer_1" xmlns="http://www.w3.org/2000/svg" xmlns:xlink="http://www.w3.org/1999/xlink" x="0px" y="0px"
	 viewBox="0 0 1400 900" style="enable-background:new 0 0 1400 900;" xml:space="preserve">
<style type="text/css">
	.st0{fill:#FF0000;}
</style>
<path class="st0" d="M443.6,327.6h25.2v43.2l39.6-43.2h31.8l-37.5,39.3l40.5,66.6h-29.8l-28.3-48l-16.2,16.9v31h-25.2V327.6z
	 M573.2,327.6v105.9h-23.1V327.6H573.2z M594.5,327.5h22.8v17.8h-22.8V327.5z M594.5,355.1h22.8v78.4h-22.8V355.1z M660.9,363.5
	c2.7-3.1,8.7-10.2,22.2-10.2c12.9,0,17.5,4.8,21.7,9.1c4.5-3.8,10.8-9.1,23.2-9.1c12.9,0,19.5,6.4,21.9,11.2c2,4.2,2.1,9.6,2.1,18
	v51h-22.8v-41.1c0-4.5,0-10.3-0.9-13.3c-2.1-6.6-8.2-7-10-7c-2.2,0-5.2,0.6-7.5,2.4c-4.4,3.4-4.4,7.9-4.4,16.5v42.6h-22.8v-46.3
	c0-3.4-0.2-8.1-2.2-11.1c-1.8-2.4-5.2-4-9-4c-1.8,0-4.2,0.5-6.3,1.8c-5.1,3.5-5.2,9.8-5.2,15.1v44.5h-22.8v-78.1h22.8V363.5z
	 M775.8,332.6h22.9V357h15.1v14.1h-15.3v35.2c-0.1,4.8-0.1,8.8,6,8.8l8.2-0.3v18c-5,0.8-7.9,1.2-12.1,1.2c-7.9,0-16.6-0.5-21.6-7.6
	c-3.1-4.6-3.3-10.2-3.3-17.7V371h-11.4v-14.1h11.4V332.6z M951.9,416.8c-7,0-9.3-2.5-11.4-4.9c6.4-10.8,7.6-13.6,11.4-25.2
	l-18.7-6.9c-1.6,7.6-2.2,9.4-5.1,15.7c-5.9-8.1-7.5-10.3-14.4-21c9.4-3.9,19.8-11.8,19.8-24.7c0-12-9-22.8-25.8-22.8
	c-17.8,0-27.1,10.2-27.1,23.2c0,6.3,3,11.5,6.9,18.1c-7.3,3.3-18.3,8.2-23.7,21.4c-1.5,4-2.2,8.1-2.2,12c0,16.5,11.8,32.7,36.3,32.7
	c14.5,0,23.4-5.2,28.2-8.1c5.4,5.2,8.5,7,18.6,7h11.8v-16.8C954.9,416.7,953.4,416.8,951.9,416.8z M907.2,343.1
	c4.5,0,7.3,2.7,7.3,6.4c0,5.1-4.6,8.5-9.7,11.2c-3.5-5.5-5.1-8.2-5.1-11.4C899.7,345.5,903.3,343.1,907.2,343.1z M900.2,416.7
	c-11.4,0-15.7-9.9-15.7-15.7c0-9.1,7.6-14.1,12.3-17.1l18.1,27.9C910.5,414.1,905.9,416.7,900.2,416.7z M562.8,528.4
	c7.2-2.7,21.7-8,21.7-29.2c0-9.6-3.4-18-8.4-23.5c-9.8-10.5-23.5-10.6-34.6-10.8h-47.7v105.9h26.5v-37.8H537l21,37.8h29.2
	L562.8,528.4z M542.3,513.3h-21.9v-28.6h22.5c5.5,0.2,15.3,0.6,15.3,14.1C558.2,512.9,546,513.2,542.3,513.3z M640.2,490.1
	c-30-1.6-45.1,17.4-45.1,41.4c0,28.9,20.1,41.5,42.1,41.5c30.6,0,42-21.7,42-41.5C679.2,517.2,672.2,491.9,640.2,490.1z
	 M637.2,554.7c-12.9,0-18.9-10.9-18.9-23.4c0-5.4,1-10.8,3.9-15.3c3.1-4.9,7-7.2,13.6-7.6c3.3-0.3,8.7-0.1,13.5,4.3
	c4.3,4.2,6.4,11,6.4,19.6C655.8,544.6,649.7,554.7,637.2,554.7z M742.4,464.9v33.4c-4.2-3.1-10.3-7.9-20.7-7.9
	c-15.7,0-32.5,12.1-32.5,41.7c0,5.1,0,20.8,11.4,31.8c6.1,6,14.2,9,22,9c11.5,0,17.5-5.8,21.1-9.4v7.3h21V464.9H742.4z M734.7,553.5
	c-2.2,1.5-4.9,2.4-7.5,2.4c-11.7,0-14.7-13.3-14.7-24.3c0-3.5,0-24,16.3-24c4.6,0,7.9,3.3,9,4.6c4.9,6,4.9,15.8,4.9,19.3
	C742.8,535.9,742.8,547.9,734.7,553.5z M785.7,464.7h22.8v17.8h-22.8V464.7z M785.7,492.3h22.8v78.4h-22.8V492.3z M853.1,499.5
	c2.2-2.4,3.8-4.2,7.8-6.1c3.6-1.5,8.7-2.9,14.2-2.9c4.6,0,9.9,0.9,13.9,3.1c8.2,4.3,10.3,11.4,10.3,23.5v53.5h-22.9v-44.1
	c0-7-0.1-9.6-1-11.7c-1.8-4.2-5.8-6-10.3-6c-12.1,0-12.1,9.7-12.1,19.5v42.3h-23.1v-78.1h23.2V499.5z"/>
</svg>
