<svg id='clipPathSVG' width="0" height="0" version="1.1" height="0" viewBox="0 0 100 50">
		<clipPath id="mask" >
			<path class="clippath" fill="#f00"
				d="M0,0.117h4.913V8.54l7.721-8.423h6.2l-7.311,7.662l7.896,12.985h-5.81l-5.518-9.359l-3.159,3.295v6.044H0.019
					V0.117H0z M25.268,0.117v20.647h-4.504V0.117H25.268z M29.421,0.097h4.445v3.47h-4.445V0.097z M29.421,5.479h4.445v15.286h-4.445
					V5.479z M42.367,7.116c0.526-0.604,1.696-1.989,4.328-1.989c2.515,0,3.412,0.936,4.231,1.774c0.877-0.741,2.106-1.774,4.523-1.774
					c2.515,0,3.802,1.248,4.27,2.184c0.39,0.819,0.409,1.872,0.409,3.509v9.943h-4.445v-8.013c0-0.877,0-2.008-0.175-2.593
					c-0.409-1.287-1.599-1.365-1.95-1.365c-0.429,0-1.014,0.117-1.462,0.468c-0.858,0.663-0.858,1.54-0.858,3.217v8.306h-4.445v-9.027
					c0-0.663-0.039-1.579-0.429-2.164c-0.351-0.468-1.014-0.78-1.755-0.78c-0.351,0-0.819,0.097-1.228,0.351
					c-0.994,0.682-1.014,1.911-1.014,2.944v8.676h-4.445V5.557h4.445V7.116z M64.769,1.092h4.465v4.757h2.944v2.749h-2.983v6.863
					c-0.019,0.936-0.019,1.716,1.17,1.716l1.599-0.058v3.509c-0.975,0.156-1.54,0.234-2.359,0.234c-1.54,0-3.236-0.097-4.211-1.482
					c-0.604-0.897-0.643-1.989-0.643-3.451v-7.35h-2.223V5.83h2.223V1.092H64.769z M99.103,17.508c-1.365,0-1.813-0.487-2.223-0.955
					c1.248-2.106,1.482-2.652,2.223-4.913l-3.646-1.345c-0.312,1.482-0.429,1.833-0.994,3.061c-1.15-1.579-1.462-2.008-2.808-4.094
					c1.833-0.76,3.86-2.301,3.86-4.816c0-2.34-1.755-4.445-5.03-4.445c-3.47,0-5.284,1.989-5.284,4.523
					c0,1.228,0.585,2.242,1.345,3.529c-1.423,0.643-3.568,1.599-4.621,4.172c-0.292,0.78-0.429,1.579-0.429,2.34
					c0,3.217,2.301,6.376,7.077,6.376c2.827,0,4.562-1.014,5.498-1.579c1.053,1.014,1.657,1.365,3.626,1.365H100V17.45
					C99.688,17.489,99.396,17.508,99.103,17.508z M90.388,3.139c0.877,0,1.423,0.526,1.423,1.248c0,0.994-0.897,1.657-1.891,2.184
					c-0.682-1.072-0.994-1.599-0.994-2.223C88.926,3.607,89.628,3.139,90.388,3.139z M89.023,17.489c-2.223,0-3.061-1.93-3.061-3.061
					c0-1.774,1.482-2.749,2.398-3.334l3.529,5.44C91.031,16.982,90.135,17.489,89.023,17.489z M23.24,39.267
					c1.404-0.526,4.231-1.56,4.231-5.693c0-1.872-0.663-3.509-1.638-4.582c-1.911-2.047-4.582-2.067-6.746-2.106h-9.3v20.647h5.167
					v-7.37h3.256l4.094,7.37h5.693L23.24,39.267z M19.244,36.323h-4.27v-5.576h4.387c1.072,0.039,2.983,0.117,2.983,2.749
					C22.344,36.245,19.965,36.303,19.244,36.323z M38.331,31.8c-5.849-0.312-8.793,3.392-8.793,8.072c0,5.635,3.919,8.091,8.208,8.091
					c5.966,0,8.189-4.231,8.189-8.091C45.935,37.083,44.57,32.151,38.331,31.8z M37.746,44.395c-2.515,0-3.685-2.125-3.685-4.562
					c0-1.053,0.195-2.106,0.76-2.983c0.604-0.955,1.365-1.404,2.652-1.482c0.643-0.058,1.696-0.019,2.632,0.838
					c0.838,0.819,1.248,2.145,1.248,3.821C41.373,42.425,40.183,44.395,37.746,44.395z M58.257,26.886v6.512
					c-0.819-0.604-2.008-1.54-4.036-1.54c-3.061,0-6.337,2.359-6.337,8.13c0,0.994,0,4.055,2.223,6.2
					c1.189,1.17,2.769,1.755,4.289,1.755c2.242,0,3.412-1.131,4.114-1.833v1.423h4.094V26.886H58.257z M56.756,44.161
					c-0.429,0.292-0.955,0.468-1.462,0.468c-2.281,0-2.866-2.593-2.866-4.738c0-0.682,0-4.679,3.178-4.679
					c0.897,0,1.54,0.643,1.755,0.897c0.955,1.17,0.955,3.081,0.955,3.763C58.335,40.729,58.335,43.069,56.756,44.161z M66.699,26.847
					h4.445v3.47h-4.445V26.847z M66.699,32.229h4.445v15.286h-4.445V32.229z M79.84,33.632c0.429-0.468,0.741-0.819,1.521-1.189
					c0.702-0.292,1.696-0.565,2.769-0.565c0.897,0,1.93,0.175,2.71,0.604c1.599,0.838,2.008,2.223,2.008,4.582v10.431h-4.465v-8.598
					c0-1.365-0.019-1.872-0.195-2.281c-0.351-0.819-1.131-1.17-2.008-1.17c-2.359,0-2.359,1.891-2.359,3.802v8.247h-4.504V32.267h4.523
					L79.84,33.632L79.84,33.632z"/>
		</clipPath>
</svg>
