<?xml version="1.0" encoding="utf-8"?>
<!-- Generator: Adobe Illustrator 21.0.0, SVG Export Plug-In . SVG Version: 6.00 Build 0)  -->
<svg version="1.1" id="Layer_1" xmlns="http://www.w3.org/2000/svg" xmlns:xlink="http://www.w3.org/1999/xlink" x="0px" y="0px"
	 viewBox="0 0 33.1 27" style="enable-background:new 0 0 33.1 27;" xml:space="preserve">
<path d="M32.4,2.4c-0.1,1.4-1.4,2.4-3,2.4H3.8c-1.6,0-2.9-1.1-3-2.4C0.8,1.1,2.2,0,3.8,0h25.6C31,0,32.3,1.1,32.4,2.4z"/>
<path d="M32.4,13.5c-0.1,1.4-1.4,2.4-3,2.4H3.8c-1.6,0-2.9-1.1-2.9-2.4s1.3-2.4,2.9-2.4h25.6C31,11.1,32.3,12.1,32.4,13.5z"/>
<path d="M32.4,24.6c-0.1,1.4-1.4,2.4-3,2.4H3.8c-1.6,0-2.9-1.1-2.9-2.4c0-1.3,1.3-2.4,2.9-2.4c0,0,0,0,0,0h25.6
	C31,22.2,32.3,23.2,32.4,24.6z"/>
</svg>
