<svg xmlns="http://www.w3.org/2000/svg" viewBox="0 0 20.23 25"><path d="M5.3,25a4,4,0,0,1-3.95-3.73.62.62,0,0,1,1.23-.07A2.71,2.71,0,0,0,7.5,22.63l4.45-8.25a5.34,5.34,0,1,0-9.89-2.46A.62.62,0,1,1,.82,12,6.57,6.57,0,0,1,11.76,6.71,6.57,6.57,0,0,1,13,15L8.53,23.31a3.93,3.93,0,0,1-3,1.68Z"/><path d="M16.62,12.43h-.06a.46.46,0,0,1-.4-.52,9.79,9.79,0,0,0-.46-4.55A6.8,6.8,0,0,0,9.38,2.94a.46.46,0,0,1-.46-.47A.46.46,0,0,1,9.39,2a7.73,7.73,0,0,1,7.19,5,10.73,10.73,0,0,1,.51,5A.46.46,0,0,1,16.62,12.43Z"/><path d="M19.2,11.61h-.06a.46.46,0,0,1-.4-.52,11.13,11.13,0,0,0-.53-5.17,7.75,7.75,0,0,0-7.2-5,.46.46,0,0,1-.46-.47A.46.46,0,0,1,11,0a8.68,8.68,0,0,1,8.07,5.64,12.07,12.07,0,0,1,.58,5.61A.46.46,0,0,1,19.2,11.61Z"/><path d="M5.63,18.73a.46.46,0,0,1-.29-.83c1.46-1.15,1.38-1.56,1.38-1.56a.85.85,0,0,0-.54-.18h0c-2.76,0-2.76-2.88-2.76-4a4,4,0,0,1,7.93,0,.46.46,0,0,1-.93,0,3,3,0,0,0-6.08,0c0,2.19.52,3,1.86,3,.13,0,1.16.07,1.4.82s-.31,1.49-1.68,2.57A.46.46,0,0,1,5.63,18.73Z"/></svg>