<svg version="1.1" id="Layer_1" xmlns="http://www.w3.org/2000/svg" xmlns:xlink="http://www.w3.org/1999/xlink" x="0px" y="0px"
   viewBox="0 0 19.4 18" style="enable-background:new 0 0 19.4 18;" xml:space="preserve">
<path class="st4" d="M13.4,18H6c-0.6,0-1-0.4-1-1v-6.6H1c-0.4,0-0.8-0.2-0.9-0.6S0,9,0.3,8.7L9,0.3c0.4-0.4,1-0.4,1.4,0l8.7,8.4
    c0.3,0.3,0.4,0.7,0.2,1.1s-0.5,0.6-0.9,0.6h-4V17C14.4,17.6,13.9,18,13.4,18z M7,16h5.4V9.4c0-0.6,0.4-1,1-1h2.5l-6.2-6l-6.2,6H6
    c0.6,0,1,0.4,1,1V16z"/>
</svg>
