<svg xmlns="http://www.w3.org/2000/svg" viewBox="0 0 27 27"><path d="M23.22,27H17.67a1,1,0,0,1-1-1V16.28a1,1,0,0,1,1-1h2L20,13.84H17.67a1,1,0,0,1-1-1V10.49a2.83,2.83,0,0,1,2.91-3h.66V5.88H18.73c-3.5,0-4.23,2.24-4.23,4.12v2.85a1,1,0,0,1-1,1H11.72v1.44H13.5a1,1,0,0,1,1,1V26a1,1,0,0,1-1,1H3.78A3.78,3.78,0,0,1,0,23.22V3.78A3.78,3.78,0,0,1,3.78,0H23.22A3.78,3.78,0,0,1,27,3.78V23.22A3.78,3.78,0,0,1,23.22,27Zm-4.56-2h4.56A1.78,1.78,0,0,0,25,23.22V3.78A1.78,1.78,0,0,0,23.22,2H3.78A1.78,1.78,0,0,0,2,3.78V23.22A1.78,1.78,0,0,0,3.78,25H12.5V17.28H10.72a1,1,0,0,1-1-1V12.84a1,1,0,0,1,1-1H12.5V10c0-3.77,2.39-6.12,6.23-6.12h2.51a1,1,0,0,1,1,1V8.5a1,1,0,0,1-1,1H19.57c-.6,0-.91.34-.91,1v1.35h2.57a1,1,0,0,1,1,1.22l-.79,3.44a1,1,0,0,1-1,.78H18.67Z"/></svg>
