<svg version="1.1" id="Layer_1" xmlns="http://www.w3.org/2000/svg" xmlns:xlink="http://www.w3.org/1999/xlink" x="0px" y="0px"
   viewBox="0 0 8.9 21" style="enable-background:new 0 0 8.9 21;" xml:space="preserve">
<path d="M4.5,2c0.7,0,1.3,0.6,1.3,1.3S5.3,4.7,4.5,4.7S3.2,4.1,3.2,3.3S3.8,2,4.5,2 M5.7,10v7.3l1.2,0.3V19H2.1v-1.5
  l1.2-0.3v-5.6L2,11.4V10H5.7 M4.5,0C2.7,0,1.2,1.5,1.2,3.3s1.5,3.3,3.3,3.3c1.8,0,3.3-1.5,3.3-3.3S6.4,0,4.5,0L4.5,0z M5.7,8H2
  c-1.1,0-2,0.9-2,2v1.5c0,0.8,0.5,1.6,1.3,1.9v2.4c-0.7,0.3-1.2,1-1.2,1.8V19c0,1.1,0.9,2,2,2h4.8c1.1,0,2-0.9,2-2v-1.5
  c0-0.8-0.5-1.5-1.2-1.8V10C7.7,8.9,6.8,8,5.7,8L5.7,8z"/>
</svg>
