<svg version="1.1" id="Layer_1" xmlns="http://www.w3.org/2000/svg" xmlns:xlink="http://www.w3.org/1999/xlink" x="0px" y="0px"
	 viewBox="0 0 14.1 27" style="enable-background:new 0 0 14.1 27;" xml:space="preserve">
<path d="M1,27c-0.1,0-0.3,0-0.4-0.1C0.2,26.8,0,26.4,0,26v-6.2c0-0.3,0.1-0.5,0.3-0.7l5.4-5.6L0.3,7.9
	C0.1,7.8,0,7.5,0,7.2V1c0-0.6,0.5-1,1-1c0.3,0,0.5,0.1,0.7,0.3l12.1,12.5c0.4,0.4,0.4,1,0,1.4L1.7,26.7C1.5,26.9,1.3,27,1,27z
	 M2,20.1v3.4l9.7-10L2,3.5v3.4l5.8,6c0.4,0.4,0.4,1,0,1.4L2,20.1z"/>
</svg>
