<svg xmlns="http://www.w3.org/2000/svg" viewBox="0 0 18 18"><path d="M9,17.67A8.67,8.67,0,1,1,17.64,9,8.68,8.68,0,0,1,9,17.67ZM9,2a7,7,0,1,0,7,7A7,7,0,0,0,9,2Z"/><path d="M9.12,11.62a2,2,0,0,0,.61-.09,1.61,1.61,0,0,0,.5-.26,1.2,1.2,0,0,0,.34-.41,1.05,1.05,0,0,0,.1-.54h2a2.5,2.5,0,0,1-.27,1.21,3,3,0,0,1-.77,1,3.71,3.71,0,0,1-1.14.63,4.08,4.08,0,0,1-1.37.23A4.16,4.16,0,0,1,7.45,13a3.45,3.45,0,0,1-1.23-.9,3.9,3.9,0,0,1-.74-1.35,5.3,5.3,0,0,1-.25-1.66V8.88a5.38,5.38,0,0,1,.25-1.66,3.82,3.82,0,0,1,.74-1.35A3.54,3.54,0,0,1,7.44,5a4.07,4.07,0,0,1,1.7-.33,4.28,4.28,0,0,1,1.44.23,3.4,3.4,0,0,1,1.14.66,2.91,2.91,0,0,1,.74,1,3.15,3.15,0,0,1,.25,1.35h-2a1.41,1.41,0,0,0-.09-.59,1.33,1.33,0,0,0-.32-.48,1.58,1.58,0,0,0-.5-.32,1.69,1.69,0,0,0-.64-.12,1.47,1.47,0,0,0-1.38.77,2.52,2.52,0,0,0-.28.8,5.22,5.22,0,0,0-.08.93v.23a5.59,5.59,0,0,0,.08.94,2.41,2.41,0,0,0,.28.8,1.55,1.55,0,0,0,.54.55A1.6,1.6,0,0,0,9.12,11.62Z"/></svg>
