<?xml version="1.0" encoding="utf-8"?>
<!-- Generator: Adobe Illustrator 21.0.0, SVG Export Plug-In . SVG Version: 6.00 Build 0)  -->
<svg version="1.1" id="Layer_1" xmlns="http://www.w3.org/2000/svg" xmlns:xlink="http://www.w3.org/1999/xlink" x="0px" y="0px"
	 viewBox="0 0 21.1 18" style="enable-background:new 0 0 21.1 18;" xml:space="preserve">
<path d="M21.1,1.6c0,0.9-0.9,1.6-2,1.6H2c-1.1,0-2-0.7-2-1.6C0,0.7,0.9,0,2,0h17.1C20.1,0,21,0.7,21.1,1.6z"/>
<path d="M21.1,9c0,0.9-0.9,1.6-2,1.6H2c-1.1,0-1.9-0.7-1.9-1.6c0-0.9,0.9-1.6,1.9-1.6h17.1C20.1,7.4,21,8.1,21.1,9z"/>
<path d="M21.1,16.4c0,0.9-0.9,1.6-2,1.6H2c-1.1,0-1.9-0.7-1.9-1.6s0.9-1.6,1.9-1.6c0,0,0,0,0,0h17.1C20.1,14.8,21,15.5,21.1,16.4z"
	/>
</svg>
