<svg version="1.1" id="Layer_1" xmlns="http://www.w3.org/2000/svg" xmlns:xlink="http://www.w3.org/1999/xlink" x="0px" y="0px"
	 viewBox="0 0 14.1 27" style="enable-background:new 0 0 14.1 27;" xml:space="preserve">
<path d="M13.1,27c-0.3,0-0.5-0.1-0.7-0.3L0.3,14.2c-0.4-0.4-0.4-1,0-1.4L12.4,0.3c0.4-0.4,1-0.4,1.4,0
	C14,0.5,14.1,0.7,14.1,1v6.2c0,0.3-0.1,0.5-0.3,0.7l-5.4,5.6l5.4,5.6c0.2,0.2,0.3,0.4,0.3,0.7V26c0,0.4-0.2,0.8-0.6,0.9
	C13.3,27,13.2,27,13.1,27z M2.4,13.5l9.7,10v-3.3l-5.8-6c-0.4-0.4-0.4-1,0-1.4l5.8-6V3.5L2.4,13.5z"/>
</svg>
