<svg version="1.1" id="Layer_1" xmlns="http://www.w3.org/2000/svg" xmlns:xlink="http://www.w3.org/1999/xlink" x="0px" y="0px"
   viewBox="0 0 53.8 27" style="enable-background:new 0 0 53.8 27;" xml:space="preserve">
<path d="M52.8,27H39.8c-0.3,0-0.5-0.1-0.7-0.3L26.9,14.9L14.6,26.7C14.5,26.9,14.2,27,14,27H1c-0.6,0-1-0.5-1-1
  c0-0.3,0.1-0.5,0.3-0.7l25.9-25c0.4-0.4,1-0.4,1.4,0l25.9,25c0.4,0.4,0.4,1,0,1.4C53.3,26.9,53,27,52.8,27z M40.2,25h10.1L26.9,2.4
  L3.5,25h10.1l12.7-12.2c0.4-0.4,1-0.4,1.4,0L40.2,25z"/>
</svg>
