<?xml version="1.0" encoding="utf-8"?>
<!-- Generator: Adobe Illustrator 21.0.0, SVG Export Plug-In . SVG Version: 6.00 Build 0)  -->
<svg version="1.1" id="Layer_1" xmlns="http://www.w3.org/2000/svg" xmlns:xlink="http://www.w3.org/1999/xlink" x="0px" y="0px"
	 viewBox="0 0 27 27" style="enable-background:new 0 0 27 27;" xml:space="preserve">
<style type="text/css">
	.st0{fill:none;}
</style>
<g>
	<path d="M13.5,26.2c-7,0-12.7-5.7-12.7-12.7S6.5,0.8,13.5,0.8s12.7,5.7,12.7,12.7S20.5,26.2,13.5,26.2z M13.5,2.8
		C7.6,2.8,2.8,7.6,2.8,13.5s4.8,10.7,10.7,10.7s10.7-4.8,10.7-10.7S19.4,2.8,13.5,2.8z"/>
</g>
<path d="M10.9,19.1l1.3-0.3v-6.3l-1.5-0.3v-1.6h4.2v8.1l1.3,0.3v1.6h-5.3V19.1z M13.6,5.4c-0.8,0-1.5,0.7-1.5,1.5
	c0,0.8,0.7,1.5,1.5,1.5c0.8,0,1.5-0.6,1.5-1.5C15.1,6.1,14.5,5.4,13.6,5.4C13.6,5.4,13.6,5.4,13.6,5.4z"/>
<path class="st0" d="M9.7,20.7V22h8.1v-4l-1-0.2l-0.4-0.1 M13.8,3.6L13.8,3.6c-1.6,0-2.8,1.2-2.8,2.8c0,1.1,0.6,2.1,1.7,2.6"/>
</svg>
