<?xml version="1.0" encoding="utf-8"?>
<!-- Generator: Adobe Illustrator 21.0.0, SVG Export Plug-In . SVG Version: 6.00 Build 0)  -->
<svg version="1.1" id="Layer_1" xmlns="http://www.w3.org/2000/svg" xmlns:xlink="http://www.w3.org/1999/xlink" x="0px" y="0px"
	 viewBox="0 0 33.1 27" style="enable-background:new 0 0 33.1 27;" xml:space="preserve">
<g>
	<path d="M29.4,3.7c0,0.6-0.5,1.1-1.1,1.1H4.9c-0.6,0-1.1-0.5-1.1-1.1v-1c0-0.6,0.5-1.1,1.1-1.1h23.4c0.6,0,1.1,0.5,1.1,1.1
		L29.4,3.7z"/>
</g>
<g>
	<path d="M29.4,13.8c0,0.6-0.5,1.1-1.1,1.1H4.9c-0.6,0-1.1-0.5-1.1-1.1v-1c0-0.6,0.5-1.1,1.1-1.1h23.4c0.6,0,1.1,0.5,1.1,1.1
		L29.4,13.8z"/>
</g>
<g>
	<path d="M29.4,24c0,0.6-0.5,1.1-1.1,1.1H4.9c-0.6,0-1.1-0.5-1.1-1.1v-1c0-0.6,0.5-1.1,1.1-1.1h23.4c0.6,0,1.1,0.5,1.1,1.1L29.4,24z
		"/>
</g>
</svg>
