<svg xmlns="http://www.w3.org/2000/svg" viewBox="0 0 27 27"><path d="M13.5,26.6A12.89,12.89,0,1,1,26.39,13.72,12.9,12.9,0,0,1,13.5,26.6Zm0-23.26A10.37,10.37,0,1,0,23.87,13.72,10.38,10.38,0,0,0,13.5,3.34Z"/><path d="M13.74,17.62a2.9,2.9,0,0,0,.9-.14,2.4,2.4,0,0,0,.75-.39,1.78,1.78,0,0,0,.5-.61,1.56,1.56,0,0,0,.16-.8h3a3.72,3.72,0,0,1-.4,1.8,4.44,4.44,0,0,1-1.15,1.43,5.51,5.51,0,0,1-1.69.94,6.06,6.06,0,0,1-2,.34,6.19,6.19,0,0,1-2.55-.49,5.13,5.13,0,0,1-1.83-1.34,5.8,5.8,0,0,1-1.11-2,7.88,7.88,0,0,1-.37-2.46v-.35a8,8,0,0,1,.37-2.46,5.67,5.67,0,0,1,1.11-2,5.26,5.26,0,0,1,1.83-1.35,6.05,6.05,0,0,1,2.53-.5,6.37,6.37,0,0,1,2.13.35,5,5,0,0,1,1.69,1,4.33,4.33,0,0,1,1.1,1.52,4.68,4.68,0,0,1,.37,2H16a2.1,2.1,0,0,0-.14-.88,2,2,0,0,0-.47-.71,2.34,2.34,0,0,0-.75-.48,2.51,2.51,0,0,0-1-.18,2.18,2.18,0,0,0-2,1.14,3.74,3.74,0,0,0-.41,1.19,7.75,7.75,0,0,0-.12,1.38v.35a8.3,8.3,0,0,0,.12,1.4,3.58,3.58,0,0,0,.41,1.19,2.3,2.3,0,0,0,.8.82A2.38,2.38,0,0,0,13.74,17.62Z"/></svg>
