<svg version="1.1" id="Layer_1" xmlns="http://www.w3.org/2000/svg" xmlns:xlink="http://www.w3.org/1999/xlink" x="0px" y="0px"
   viewBox="0 0 27 27" style="enable-background:new 0 0 27 27;" xml:space="preserve">
<path d="M21,8.2h-2.1V6c0-0.5-0.4-0.9-0.9-0.9c-0.6,0-1,0.4-1,0.9v2.1h-2.1C14.4,8.1,14,8.5,14,9s0.4,0.9,0.9,0.9H17V12
  c0,0.5,0.4,0.9,0.9,0.9s0.9-0.4,0.9-0.9v-2H21c0.5,0,0.9-0.4,0.9-0.9S21.5,8.2,21,8.2z M24.3,2.7C22.6,1,20.3,0,17.9,0
  s-4.7,0.9-6.4,2.7c-1.7,1.7-2.7,4-2.7,6.4c0,2,0.7,4,1.9,5.6l-1.5,1.6c-0.5-0.1-1.1,0.1-1.5,0.5L0.5,24c-0.7,0.7-0.7,1.9,0,2.6
  s1.9,0.7,2.6,0l7.2-7.2c0.4-0.4,0.6-1,0.5-1.5l1.6-1.5c1.6,1.2,3.5,1.9,5.6,1.9c2.4,0,4.7-0.9,6.4-2.7c1.7-1.7,2.7-4,2.7-6.4
  S26.1,4.4,24.3,2.7z M23,14.2c-1.4,1.4-3.2,2.1-5.1,2.1s-3.7-0.7-5.1-2.1l0,0c-1.4-1.4-2.1-3.2-2.1-5.1s0.7-3.7,2.1-5.1
  s3.2-2.1,5.1-2.1S21.6,2.7,23,4c1.4,1.4,2.1,3.2,2.1,5.1S24.3,12.8,23,14.2z"/>
</svg>
