<svg version="1.1" id="Layer_1" xmlns="http://www.w3.org/2000/svg" xmlns:xlink="http://www.w3.org/1999/xlink" x="0px" y="0px"
   viewBox="0 0 16.9 16.9" style="enable-background:new 0 0 16.9 16.9;" xml:space="preserve">
<path d="M15.2,1.7C14.1,0.6,12.6,0,11,0C9.4,0,8,0.6,6.8,1.7C5.7,2.8,5.1,4.3,5.1,5.9c0,1.3,0.4,2.6,1.3,3.6l-0.7,0.7
    c-0.3,0-0.7,0.1-0.9,0.3L0.3,15c-0.4,0.4-0.4,1.1,0,1.6c0.4,0.4,1.1,0.4,1.6,0l4.4-4.4c0.2-0.2,0.4-0.6,0.3-0.9l0.8-0.8
    c1.1,0.8,2.3,1.3,3.6,1.3c1.5,0,3-0.6,4.2-1.7c1.1-1.1,1.7-2.6,1.7-4.2S16.3,2.8,15.2,1.7z M13.9,8.8c-1.6,1.6-4.2,1.6-5.8,0
    C7.3,8,6.9,7,6.9,5.9S7.3,3.7,8.1,3C8.9,2.2,9.9,1.8,11,1.8c1.1,0,2.1,0.4,2.9,1.2s1.2,1.8,1.2,2.9S14.7,8,13.9,8.8z"/>
  <path class="st4" d="M12.9,5.3H9.1c-0.3,0-0.6,0.2-0.6,0.6c0,0.3,0.2,0.6,0.6,0.6h3.7c0.3,0,0.6-0.2,0.6-0.6
    C13.4,5.6,13.2,5.3,12.9,5.3z"/>
</svg>
