<svg xmlns="http://www.w3.org/2000/svg" viewBox="0 0 12.52 18"><path d="M6.78,2V5.54h3.28v2.2H6.78v3.59a5.77,5.77,0,0,0,.13,1.56,1.06,1.06,0,0,0,.47.55,2,2,0,0,0,1.05.28A3.75,3.75,0,0,0,10.52,13v2.21a8.21,8.21,0,0,1-1.6.59A6.79,6.79,0,0,1,7.36,16a5.34,5.34,0,0,1-1.68-.24,3.62,3.62,0,0,1-1.24-.69,2.51,2.51,0,0,1-.71-1,4.19,4.19,0,0,1-.2-1.47V7.74H2v-2A4,4,0,0,0,3.4,5a3.83,3.83,0,0,0,.93-1.2A5.5,5.5,0,0,0,4.81,2h2m0-2h-2a2,2,0,0,0-2,1.76,3.53,3.53,0,0,1-.29,1.13,1.84,1.84,0,0,1-.45.58,2,2,0,0,1-.72.39A2,2,0,0,0,0,5.75v2A2,2,0,0,0,1.53,9.68v3a6,6,0,0,0,.34,2.2,4.5,4.5,0,0,0,1.26,1.73,5.63,5.63,0,0,0,1.93,1.08A7.36,7.36,0,0,0,7.36,18a8.82,8.82,0,0,0,2-.22,10.09,10.09,0,0,0,2-.74,2,2,0,0,0,1.14-1.8V13a2,2,0,0,0-3.11-1.67,2.25,2.25,0,0,1-.63.31c0-.1,0-.21,0-.34V9.74h1.28a2,2,0,0,0,2-2V5.54a2,2,0,0,0-2-2H8.78V2a2,2,0,0,0-2-2Z"/></svg>
