<?xml version="1.0" encoding="utf-8"?>
<!-- Generator: Adobe Illustrator 21.0.0, SVG Export Plug-In . SVG Version: 6.00 Build 0)  -->
<svg version="1.1" id="Layer_1" xmlns="http://www.w3.org/2000/svg" xmlns:xlink="http://www.w3.org/1999/xlink" x="0px" y="0px"
	 viewBox="0 0 21.1 18" style="enable-background:new 0 0 21.1 18;" xml:space="preserve">
<g>
	<path d="M21.1,2.1c0,0.6-0.5,1.1-1.1,1.1H1.1C0.5,3.2,0,2.7,0,2.1v-1C0,0.5,0.5,0,1.1,0H20c0.6,0,1.1,0.5,1.1,1.1L21.1,2.1z"/>
</g>
<g>
	<path d="M21.1,9.5c0,0.6-0.5,1.1-1.1,1.1H1.1C0.5,10.6,0,10.1,0,9.5v-1c0-0.6,0.5-1.1,1.1-1.1H20c0.6,0,1.1,0.5,1.1,1.1L21.1,9.5z"
		/>
</g>
<g>
	<path d="M21.1,16.9c0,0.6-0.5,1.1-1.1,1.1H1.1C0.5,18,0,17.5,0,16.9v-1c0-0.6,0.5-1.1,1.1-1.1H20c0.6,0,1.1,0.5,1.1,1.1L21.1,16.9z
		"/>
</g>
</svg>
