<svg version="1.1" id="Layer_1" xmlns="http://www.w3.org/2000/svg" xmlns:xlink="http://www.w3.org/1999/xlink" x="0px" y="0px"
	 viewBox="0 0 22.4 27" style="enable-background:new 0 0 22.4 27;" xml:space="preserve">
<path class="st0" d="M21.4,27h-6.3c-0.6,0-1-0.4-1-1V1c0-0.6,0.4-1,1-1h6.3c0.6,0,1,0.4,1,1v25C22.4,26.6,21.9,27,21.4,27z M16.1,25
	h4.3V2h-4.3C16.1,2,16.1,25,16.1,25z M7.3,27H1c-0.6,0-1-0.4-1-1V1c0-0.6,0.4-1,1-1h6.3c0.6,0,1,0.4,1,1v25C8.3,26.6,7.8,27,7.3,27z
	 M2,25h4.3V2H2V25z"/>
</svg>
