<svg xmlns="http://www.w3.org/2000/svg" viewBox="0 0 21.23 18"><path d="M13.93,2a3.53,3.53,0,0,1,2.58,1.12,7.12,7.12,0,0,0,2.24-.86,3.55,3.55,0,0,1-1.55,2,7.07,7.07,0,0,0,2-.56,7.14,7.14,0,0,1-1.76,1.83c0,.15,0,.31,0,.46A10,10,0,0,1,7.42,16,10,10,0,0,1,2,14.41a7.13,7.13,0,0,0,5.23-1.46,3.54,3.54,0,0,1-3.3-2.45,3.61,3.61,0,0,0,.66.06,3.54,3.54,0,0,0,.93-.12A3.54,3.54,0,0,1,2.69,7v0a3.53,3.53,0,0,0,1.6.44A3.54,3.54,0,0,1,3.2,2.65a10,10,0,0,0,7.29,3.69,3.57,3.57,0,0,1-.09-.81A3.53,3.53,0,0,1,13.93,2m4.82.26h0M13.93,0A5.54,5.54,0,0,0,8.61,4,8.07,8.07,0,0,1,4.75,1.38,2,2,0,0,0,3.2.65H3a2,2,0,0,0-1.57,1A5.54,5.54,0,0,0,.94,6a2,2,0,0,0-.25,1,5.6,5.6,0,0,0,1.24,3.52A2,2,0,0,0,2,11.1a5.53,5.53,0,0,0,.65,1.35l-.44,0H2A2,2,0,0,0,.92,16.09,12,12,0,0,0,7.42,18a11.76,11.76,0,0,0,9-4,12.47,12.47,0,0,0,3.08-7.61,9.11,9.11,0,0,0,1.43-1.67,2,2,0,0,0-.13-2.4h0s0-.07,0-.1a2,2,0,0,0-2-2h-.07a2,2,0,0,0-1,.29A5.13,5.13,0,0,1,17,.91a5.56,5.56,0,0,0-3-.91Z"/></svg>
