<svg version="1.1" id="Layer_1" xmlns="http://www.w3.org/2000/svg" xmlns:xlink="http://www.w3.org/1999/xlink" x="0px" y="0px"
   viewBox="0 0 30.4 18" style="enable-background:new 0 0 30.4 18;" xml:space="preserve">
<path d="M30.2,8.5c-2.4-4.7-7.5-7.9-13.3-8.5C16.6,0,16.2,0,15.8,0c-0.1,0-0.2,0-0.3,0c-0.1,0-0.3,0-0.4,0
  C8.7,0,2.8,3.4,0.1,8.5C-0.1,9,0.1,9.6,0.5,9.9C1,10.1,1.6,9.9,1.9,9.5c1.6-3.2,4.6-5.5,8.3-6.7C9.2,4,8.6,5.5,8.6,7.2
  c0,4,3.2,7.2,7.2,7.2S23,11.2,23,7.2c0-1.4-0.4-2.6-1.1-3.7c2.7,1.2,4.9,3.1,6.2,5.5c-2.4,4.3-7.5,7-13,7c-0.6,0-1,0.4-1,1
  s0.4,1,1,1c6.5,0,12.4-3.4,15.1-8.5L30.4,9L30.2,8.5z M21,7.2c0,2.9-2.3,5.2-5.2,5.2s-5.2-2.3-5.2-5.2c0-2.8,2.2-5.1,5-5.2
  c0.1,0,0.3,0,0.4,0C18.8,2.2,21,4.4,21,7.2z"/>
</svg>
