<svg version="1.1" id="Layer_1" xmlns="http://www.w3.org/2000/svg" xmlns:xlink="http://www.w3.org/1999/xlink" x="0px" y="0px"
   viewBox="0 0 19.4 18" style="enable-background:new 0 0 19.4 18;" xml:space="preserve">
<path class="st4" d="M9.7,18c-0.3,0-0.5-0.1-0.7-0.3L0.3,9.3C0,9-0.1,8.6,0.1,8.2S0.6,7.6,1,7.6h4V1c0-0.6,0.4-1,1-1h7.4
    c0.6,0,1,0.4,1,1v6.6h4c0.4,0,0.8,0.2,0.9,0.6s0.1,0.8-0.2,1.1l-8.7,8.4C10.2,17.9,9.9,18,9.7,18z M3.5,9.6l6.2,6l6.2-6h-2.5
    c-0.6,0-1-0.4-1-1V2H7v6.6c0,0.6-0.4,1-1,1H3.5z"/>
</svg>
