<svg version="1.1" id="Layer_1" xmlns="http://www.w3.org/2000/svg" xmlns:xlink="http://www.w3.org/1999/xlink" x="0px" y="0px"
   viewBox="0 0 53.8 27" style="enable-background:new 0 0 53.8 27;" xml:space="preserve">
<path d="M26.9,27c-0.3,0-0.5-0.1-0.7-0.3L0.3,1.7c-0.4-0.4-0.4-1,0-1.4C0.5,0.1,0.7,0,1,0h12.9c0.3,0,0.5,0.1,0.7,0.3
  l12.2,11.8L39.1,0.3C39.3,0.1,39.6,0,39.8,0h12.9c0.6,0,1,0.5,1,1c0,0.3-0.1,0.5-0.3,0.7l-25.9,25C27.4,26.9,27.1,27,26.9,27z
   M3.5,2l23.4,22.6L50.3,2H40.2L27.6,14.2c-0.4,0.4-1,0.4-1.4,0L13.5,2H3.5z"/>
</svg>
