<svg version="1.1" id="Layer_1" xmlns="http://www.w3.org/2000/svg" xmlns:xlink="http://www.w3.org/1999/xlink" x="0px" y="0px"
	 viewBox="0 0 9.7 18" style="enable-background:new 0 0 9.7 18;" xml:space="preserve">
<path d="M1,18c-0.1,0-0.3,0-0.4-0.1C0.2,17.8,0,17.4,0,17v-4c0-0.3,0.1-0.5,0.3-0.7L3.5,9L0.3,5.7C0.1,5.5,0,5.3,0,5V1
	c0-0.6,0.5-1,1-1c0.3,0,0.5,0.1,0.7,0.3l7.7,8c0.4,0.4,0.4,1,0,1.4l-7.7,8C1.5,17.9,1.3,18,1,18z M2,13.4v1.1L7.3,9L2,3.5v1.1
	l3.6,3.7c0.4,0.4,0.4,1,0,1.4L2,13.4z"/>
</svg>
