<svg version="1.1" id="Layer_1" xmlns="http://www.w3.org/2000/svg" xmlns:xlink="http://www.w3.org/1999/xlink" x="0px" y="0px"
	 viewBox="0 0 9.7 18" style="enable-background:new 0 0 9.7 18;" xml:space="preserve">
<path d="M8.7,18c-0.3,0-0.5-0.1-0.7-0.3l-7.7-8c-0.4-0.4-0.4-1,0-1.4l7.7-8c0.4-0.4,1-0.4,1.4,0C9.6,0.5,9.7,0.7,9.7,1
	v4c0,0.3-0.1,0.5-0.3,0.7L6.2,9l3.2,3.3c0.2,0.2,0.3,0.4,0.3,0.7v4c0,0.4-0.2,0.8-0.6,0.9C9,18,8.9,18,8.7,18z M2.4,9l5.3,5.5v-1.1
	L4.2,9.7c-0.4-0.4-0.4-1,0-1.4l3.6-3.7V3.5L2.4,9z"/>
</svg>
