<svg xmlns="http://www.w3.org/2000/svg" viewBox="0 0 15.13 18"><defs></defs><path d="M5.44,3.5A4.8,4.8,0,0,0,.92,8.57.68.68,0,0,0,2.1,9a.67.67,0,0,0,.17-.49A3.45,3.45,0,0,1,9.16,8.1a3.48,3.48,0,0,1-.5,2L5.59,15.79a1.63,1.63,0,0,1-1.23.68,1.61,1.61,0,0,1-1.18-.41,1.63,1.63,0,0,1-.55-1.13.67.67,0,0,0-.72-.64.68.68,0,0,0-.64.72,3,3,0,0,0,3,2.82h.17a3,3,0,0,0,2.28-1.3l3.11-5.76A4.81,4.81,0,0,0,5.44,3.5Z"/><path d="M10.19,2.52a5.5,5.5,0,0,0-3.08-1,.38.38,0,0,0-.29.1A.45.45,0,0,0,6.67,2a.43.43,0,0,0,.43.43,4.61,4.61,0,0,1,4.28,3,6.68,6.68,0,0,1,.31,3.1.43.43,0,0,0,.37.48h.05a.43.43,0,0,0,.42-.38,7.54,7.54,0,0,0-.36-3.51A5.51,5.51,0,0,0,10.19,2.52Z"/><path d="M13.93,4.08a6.12,6.12,0,0,0-5.69-4,.37.37,0,0,0-.3.11A.43.43,0,0,0,7.8.53.43.43,0,0,0,8.23,1a5.26,5.26,0,0,1,4.89,3.42,7.62,7.62,0,0,1,.36,3.54.43.43,0,0,0,.37.48h.06A.43.43,0,0,0,14.33,8,8.47,8.47,0,0,0,13.93,4.08Z"/><path d="M5.56,7.27A1.68,1.68,0,0,1,7.24,8.95a.4.4,0,1,0,.8,0,2.48,2.48,0,0,0-5,0c0,.61,0,2.48,1.76,2.48a.63.63,0,0,1,.18,0,2.58,2.58,0,0,1-.75.77.4.4,0,0,0,.25.71.4.4,0,0,0,.25-.09c.86-.68,1.19-1.21,1-1.66s-.87-.57-.95-.57c-.6,0-1-.28-1-1.68A1.68,1.68,0,0,1,5.56,7.27Z"/></svg>