<svg version="1.1" id="Layer_1" xmlns="http://www.w3.org/2000/svg" xmlns:xlink="http://www.w3.org/1999/xlink" x="0px" y="0px"
   viewBox="0 0 35.1 18" style="enable-background:new 0 0 35.1 18;" xml:space="preserve">
<g>
  <path d="M34.1,18h-8.3c-0.3,0-0.5-0.1-0.7-0.3l-7.5-7.3L10,17.7C9.8,17.9,9.6,18,9.3,18H1c-0.4,0-0.8-0.2-0.9-0.6
    C-0.1,17,0,16.6,0.3,16.3l16.6-16c0.4-0.4,1-0.4,1.4,0l16.5,16c0.3,0.3,0.4,0.7,0.2,1.1C34.9,17.8,34.5,18,34.1,18z M26.2,16h5.4
    l-14-13.6L3.5,16h5.4l8-7.7c0.4-0.4,1-0.4,1.4,0L26.2,16z"/>
</g>
</svg>