<svg version="1.1" id="Layer_1" xmlns="http://www.w3.org/2000/svg" xmlns:xlink="http://www.w3.org/1999/xlink" x="0px" y="0px"
   viewBox="0 0 29.2 27" style="enable-background:new 0 0 29.2 27;" xml:space="preserve">
<path d="M20.3,27H8.8c-0.6,0-1-0.4-1-1V15.1H1c-0.4,0-0.8-0.2-0.9-0.6c-0.2-0.4-0.1-0.8,0.2-1.1L13.9,0.3
  c0.4-0.4,1-0.4,1.4,0l13.6,13.1c0.3,0.3,0.4,0.7,0.2,1.1s-0.5,0.6-0.9,0.6h-6.8V26C21.3,26.6,20.9,27,20.3,27z M9.8,25h9.5V14.1
  c0-0.6,0.4-1,1-1h5.3l-11-10.7L3.5,13.1h5.3c0.6,0,1,0.4,1,1V25z"/>
</svg>
