<?xml version="1.0" encoding="utf-8"?>
<!-- Generator: Adobe Illustrator 19.2.0, SVG Export Plug-In . SVG Version: 6.00 Build 0)  -->
<svg version="1.1" id="Ebene_1" xmlns="http://www.w3.org/2000/svg" xmlns:xlink="http://www.w3.org/1999/xlink" x="0px" y="0px"
	 viewBox="0 0 377 17" style="enable-background:new 0 0 377 17;" xml:space="preserve">
<style type="text/css">
	.st0{fill:#FFFFFF;}
</style>
<g>
	<path class="st0" d="M364.8,1.4v14.2h10.3v-1.8h-8.3V9.1h7.3V7.4h-7.3V3.2h8V1.4H364.8z M349.3,1.4v14.2h1.9v-5.1
		c0-1.1,0-2.2,0-3.4c0-0.4,0-0.9,0-1.4c0-0.6,0-1.1,0-1.7c0.8,1.5,1.8,3,2.7,4.5l4.5,7h2V1.4h-1.9v7.5c0,0.6,0,1.1,0,1.7
		c0,0.8,0.1,1.5,0.1,2.3c-0.4-0.7-0.8-1.3-1.1-2c-0.4-0.6-0.8-1.3-1.2-1.9l-5-7.6H349.3z M336.6,8V3.1h3.8c0.8,0,1.5,0.1,2.2,0.6
		c0.7,0.6,0.8,1.4,0.8,1.7c0,0.3,0,0.9-0.5,1.5c-0.3,0.4-0.9,0.9-2,1c-0.3,0-0.7,0-1,0H336.6z M334.6,1.4v14.2h2V9.7h3.7
		c0.7,0,1.2,0.1,1.7,0.5c0.4,0.4,0.7,0.9,0.9,2.1c0.1,1.2,0,2.1,0.4,3.3h2.4c-0.4-0.7-0.6-1.2-0.7-2.7c-0.1-1.5-0.2-2.1-0.5-2.8
		c-0.4-0.9-1-1.2-1.4-1.3c0.3-0.1,0.4-0.2,0.6-0.3c0.6-0.4,1.7-1.3,1.7-3.2c0-1.2-0.4-1.9-0.7-2.3c-1.1-1.5-2.9-1.6-4.6-1.6H334.6z
		 M320.8,1.4v14.2h10.3v-1.8h-8.3V9.1h7.3V7.4h-7.3V3.2h8V1.4H320.8z M318,5.6c-0.1-0.5-0.2-0.8-0.3-1c-0.1-0.1-0.3-0.6-0.5-1
		c-0.3-0.5-0.7-0.9-1.1-1.3c-1.5-1.2-3.2-1.2-3.8-1.2c-2.9,0-4.4,1.6-5.1,2.5c-0.6,0.8-1.5,2.4-1.5,4.9c0,2,0.6,4.1,2,5.6
		c1.2,1.3,2.8,1.9,4.5,1.9c3.4,0,4.9-2.3,5.4-3.4c0.5-1,0.6-2,0.7-2.4h-2c-0.1,0.4-0.1,0.7-0.2,0.9c-0.5,1.8-2,3-3.9,3
		c-1.3,0-2.1-0.5-2.5-0.8c-2-1.5-2-4.2-2-4.8s0-3.7,2.4-5.1c0.9-0.5,1.8-0.6,2.2-0.6c0.7,0,2.5,0.2,3.5,2.1c0.1,0.3,0.3,0.6,0.3,0.9
		L318,5.6z M291.6,1.4v7.2c0,2,0,3,0.2,3.9c0.1,0.2,0.2,0.7,0.5,1.2c0.4,0.7,0.9,1,1.1,1.2c1.4,1.1,3.1,1,3.7,1c0.8,0,4.5,0,5.5-3.3
		c0.2-0.8,0.2-1.7,0.2-2.5V1.4h-2v7.8c0,1.9,0,2.9-0.6,3.7c-0.1,0.1-0.3,0.4-0.6,0.6c-0.9,0.6-2.1,0.6-2.4,0.6c-2,0-2.9-0.9-3.3-1.8
		c-0.3-0.6-0.3-1.3-0.3-2.7V1.4H291.6z M280.1,1.4v14.2h9.4v-1.8h-7.4V1.4H280.1z M258.8,1.4v14.2h1.9v-5.1c0-1.1,0-2.2,0-3.4
		c0-0.4,0-0.9,0-1.4c0-0.6,0-1.1,0-1.7c0.8,1.5,1.8,3,2.7,4.5l4.5,7h2V1.4h-1.9v7.5c0,0.6,0,1.1,0,1.7c0,0.8,0.1,1.5,0.1,2.3
		c-0.4-0.7-0.8-1.3-1.1-2c-0.4-0.6-0.8-1.3-1.2-1.9l-5-7.6H258.8z M249.1,2.7c2.2,0,3.9,1.3,4.5,3.4c0.2,0.7,0.3,1.5,0.3,2.2
		c0,2.1-0.7,4.4-2.8,5.4c-0.8,0.4-1.7,0.4-2,0.4c-1.2,0-2.1-0.4-2.5-0.7c-2.3-1.4-2.4-4.2-2.4-4.9c0-2.1,0.7-4.3,2.8-5.3
		C247.9,2.8,248.7,2.8,249.1,2.7 M249.1,1c-1,0-3.5,0.2-5.3,2.5c-1.6,2-1.6,4.4-1.6,5.2c0,3.1,1.3,4.7,2.2,5.6
		c1.8,1.6,3.8,1.7,4.6,1.7c2.5,0,3.9-1,4.6-1.8c0.9-0.9,2.2-2.7,2.3-5.8c0-2.8-1.1-4.4-1.9-5.3C252.3,1.2,250,1,249.1,1 M237.8,15.6
		h2V1.4h-2V15.6z M224.8,1.4v1.8h4.4v12.4h2V3.1h4.4V1.4H224.8z M217.3,9.6l1.4-4.1c0.2-0.7,0.5-1.3,0.7-2l2.1,6.1H217.3z
		 M218.4,1.4l-5.2,14.2h2.1l1.5-4.3h5.4l1.4,4.3h2.1l-5.2-14.2H218.4z M202.2,3.2h1.9c1.3,0,2,0,2.6,0.2c0.3,0.1,1,0.3,1.6,0.9
		c1,1,1.2,2.7,1.2,4c0,2.1-0.5,3.4-1.1,4.1c-0.3,0.3-0.6,0.5-0.7,0.6c-0.4,0.3-1.1,0.6-2.2,0.7c-0.2,0-0.4,0-0.7,0h-2.6V3.2z
		 M200.2,1.4v14.2h2.7c2.4,0,3.3,0.1,4.5-0.3c1-0.3,1.6-0.8,1.9-1.1c0.3-0.3,0.8-0.7,1.3-1.6c0.9-1.7,1-3.6,1-4.2c0-3-1-4.7-2.1-5.6
		c-0.8-0.8-2-1.4-4.4-1.4H200.2z M184.7,1.4v14.2h1.9v-5.1c0-1.1,0-2.2,0-3.4c0-0.4,0-0.9,0-1.4c0-0.6,0-1.1,0-1.7
		c0.8,1.5,1.8,3,2.7,4.5l4.5,7h2V1.4H194v7.5c0,0.6,0,1.1,0,1.7c0,0.8,0.1,1.5,0.1,2.3c-0.4-0.7-0.8-1.3-1.1-2
		c-0.4-0.6-0.8-1.3-1.2-1.9l-5-7.6H184.7z M169.4,1.4v7.2c0,2,0,3,0.2,3.9c0.1,0.2,0.2,0.7,0.5,1.2c0.4,0.7,0.9,1,1.1,1.2
		c1.4,1.1,3.1,1,3.7,1c0.8,0,4.5,0,5.5-3.3c0.2-0.8,0.2-1.7,0.2-2.5V1.4h-2v7.8c0,1.9,0,2.9-0.6,3.7c-0.1,0.1-0.3,0.4-0.6,0.6
		c-0.9,0.6-2.1,0.6-2.4,0.6c-2,0-2.9-0.9-3.3-1.8c-0.3-0.6-0.3-1.3-0.3-2.7V1.4H169.4z M160.3,2.7c2.2,0,3.9,1.3,4.5,3.4
		c0.2,0.7,0.3,1.5,0.3,2.2c0,2.1-0.7,4.4-2.8,5.4c-0.8,0.4-1.6,0.4-2,0.4c-1.2,0-2.1-0.4-2.5-0.7c-2.3-1.4-2.4-4.2-2.4-4.9
		c0-2.1,0.7-4.3,2.8-5.3C159.1,2.8,159.9,2.8,160.3,2.7 M160.4,1c-1,0-3.5,0.2-5.3,2.5c-1.6,2-1.6,4.4-1.6,5.2
		c0,3.1,1.3,4.7,2.2,5.6c1.8,1.6,3.8,1.7,4.6,1.7c2.5,0,3.9-1,4.6-1.8c0.9-0.9,2.2-2.7,2.3-5.8c0-2.8-1.1-4.4-1.9-5.3
		C163.5,1.2,161.2,1,160.4,1 M141.9,1.4v14.2h2V9.2h6.4V7.4H144V3.2h7.6V1.4H141.9z M126.1,7.4V4.1h2.6c0.8,0,1.2,0,1.6,0.2
		c0.3,0.1,0.8,0.5,0.8,1.4c0,0.2-0.1,1.2-0.9,1.6c-0.4,0.2-0.8,0.2-1.7,0.1H126.1z M123,1.4v14.2h3.1V9.9h0.9c1.6,0,2.4,0,3,0.5
		c0.5,0.4,0.7,0.9,0.8,2.1l0.1,1.1c0,0.5,0,1.4,0.4,1.8c0.1,0.1,0.2,0.1,0.2,0.2h3.2c-0.2-0.2-0.3-0.3-0.3-0.4
		c-0.3-0.5-0.3-1.5-0.3-1.5c0-0.7-0.1-2.4-0.2-3c-0.3-1.6-1.3-1.9-2-2c0.3-0.1,0.8-0.2,1.4-0.8c0.3-0.2,0.4-0.5,0.5-0.6
		c0.5-0.8,0.6-1.8,0.6-2.1c0-0.4-0.1-1.4-0.8-2.4c-1.2-1.5-3.1-1.4-4.8-1.4H123z M114.1,3.8c0.9,0,2.7,0.3,3.4,2.6
		c0.3,0.9,0.3,1.8,0.3,2.1c0,0.5,0,3-1.9,4.2c-0.8,0.5-1.5,0.5-1.8,0.5c-1.1,0-1.8-0.4-2.1-0.7c-1.7-1.3-1.7-3.5-1.7-4.1
		c0-2.6,1.1-3.9,2.2-4.4C113.2,3.8,113.8,3.8,114.1,3.8 M114.2,1c-3.1,0-4.8,1.5-5.5,2.5c-1.1,1.4-1.6,3.1-1.6,5
		c0,3.3,1.5,5.1,2.6,5.9c1.3,1.1,2.8,1.4,4.5,1.4c0.5,0,1.6,0,2.8-0.4c2.9-1.1,4.2-4,4.2-6.9c0-2.4-0.9-4.7-2.8-6.2
		C116.7,1.1,114.9,1,114.2,1 M94.7,1.4v2.7h4.4v11.5h3.2V4.1h4.2V1.4H94.7z M81.4,1.4v14.2h2.9v-5.2c0-1.7,0-3.4-0.1-5.1
		c0.2,0.7,0.3,0.9,0.7,1.5c0.3,0.6,0.6,1.3,1,1.9l3.9,6.9H93V1.4H90v6.2c0,0.6,0,1.2,0,1.9c0,0.7,0.1,1.5,0.1,2.2
		c-0.1-0.3-0.3-0.7-0.4-1c-0.4-0.9-0.9-1.7-1.4-2.6l-3.7-6.7H81.4z M67.5,1.4v14.2h10.7v-2.7h-7.5V9.4h6.5V6.8h-6.5V4.1h7.4V1.4
		H67.5z M49.6,1.4v14.2h2.9V8.4c0-1,0-2.1-0.1-3.1c0.2,1,0.5,2.1,0.7,3.1l1.9,7.2h3.1L60,8.6c0.3-1.2,0.6-2.3,0.8-3.5
		c0,1.3-0.1,2.6-0.1,3.9v6.5h3V1.4h-4.4l-1.5,6c-0.2,0.8-0.4,1.7-0.6,2.6c-0.2,0.8-0.4,1.6-0.5,2.4c-0.1-0.6-0.2-1.2-0.3-1.9
		c-0.2-1-0.5-2.1-0.7-3.1l-1.5-6H49.6z M29,1.4v2.7h4.4v11.5h3.2V4.1h4.2V1.4H29z M19.3,7.4V4.1h2.6c0.8,0,1.2,0,1.6,0.2
		c0.3,0.1,0.8,0.5,0.8,1.4c0,0.2-0.1,1.2-0.9,1.6c-0.4,0.2-0.8,0.2-1.7,0.1H19.3z M16.2,1.4v14.2h3.1V9.9h0.9c1.6,0,2.4,0,3,0.5
		c0.5,0.4,0.7,0.9,0.8,2.1l0.1,1.1c0,0.5,0,1.4,0.4,1.8c0.1,0.1,0.2,0.1,0.2,0.2h3.2c-0.2-0.2-0.3-0.3-0.3-0.4
		c-0.3-0.5-0.3-1.5-0.3-1.5c0-0.7-0.1-2.4-0.2-3c-0.3-1.6-1.3-1.9-2-2c0.3-0.1,0.8-0.2,1.4-0.8c0.3-0.2,0.4-0.5,0.5-0.6
		c0.5-0.8,0.6-1.8,0.6-2.1c0-0.4-0.1-1.4-0.8-2.4c-1.2-1.5-3.1-1.4-4.8-1.4H16.2z M6.1,10.1l1.7-5.9l1.6,5.9H6.1z M5.8,1.4L1,15.6
		h3.4l0.9-2.9h4.8l0.9,2.9h3.5L9.8,1.4H5.8z"/>
</g>
</svg>
