<?xml version="1.0" encoding="utf-8"?>
<!-- Generator: Adobe Illustrator 21.0.0, SVG Export Plug-In . SVG Version: 6.00 Build 0)  -->
<svg version="1.1" id="Layer_1" xmlns="http://www.w3.org/2000/svg" xmlns:xlink="http://www.w3.org/1999/xlink" x="0px" y="0px"
	 viewBox="0 0 27 27" style="enable-background:new 0 0 27 27;" xml:space="preserve">
<g>
	<path d="M13.7,17.4c0.3,0,0.6,0,0.9-0.1c0.3-0.1,0.5-0.2,0.8-0.4c0.2-0.2,0.4-0.4,0.5-0.6c0.1-0.2,0.2-0.5,0.2-0.8h3
		c0,0.6-0.1,1.2-0.4,1.8c-0.3,0.6-0.7,1-1.1,1.4c-0.5,0.4-1.1,0.7-1.7,0.9c-0.6,0.2-1.3,0.3-2,0.3c-0.9,0-1.7-0.1-2.6-0.5
		c-0.7-0.3-1.3-0.8-1.8-1.3c-0.5-0.6-0.9-1.3-1.1-2c-0.3-0.8-0.4-1.6-0.4-2.5v-0.4c0-0.8,0.1-1.7,0.4-2.5c0.2-0.7,0.6-1.4,1.1-2
		c0.5-0.6,1.1-1,1.8-1.4C12.1,7.2,12.9,7,13.8,7c0.7,0,1.4,0.1,2.1,0.3c0.6,0.2,1.2,0.6,1.7,1c0.5,0.4,0.8,0.9,1.1,1.5
		c0.3,0.6,0.4,1.3,0.4,2H16c0-0.3,0-0.6-0.1-0.9c-0.1-0.3-0.3-0.5-0.5-0.7c-0.2-0.2-0.5-0.4-0.8-0.5c-0.3-0.1-0.7-0.2-1-0.2
		c-0.8,0-1.6,0.4-2,1.1c-0.2,0.4-0.3,0.8-0.4,1.2c-0.1,0.5-0.1,0.9-0.1,1.4v0.4c0,0.5,0,0.9,0.1,1.4c0.1,0.4,0.2,0.8,0.4,1.2
		c0.2,0.3,0.5,0.6,0.8,0.8C12.8,17.3,13.3,17.4,13.7,17.4z"/>
	<path d="M13.5,26.2c-7,0-12.7-5.7-12.7-12.7S6.5,0.8,13.5,0.8s12.7,5.7,12.7,12.7S20.5,26.2,13.5,26.2z M13.5,2.8
		C7.6,2.8,2.8,7.6,2.8,13.5s4.8,10.7,10.7,10.7s10.7-4.8,10.7-10.7S19.4,2.8,13.5,2.8z"/>
</g>
</svg>
