<?xml version="1.0" encoding="utf-8"?>
<!-- Generator: Adobe Illustrator 21.0.0, SVG Export Plug-In . SVG Version: 6.00 Build 0)  -->
<svg version="1.1" xmlns="http://www.w3.org/2000/svg" xmlns:xlink="http://www.w3.org/1999/xlink" x="0px" y="0px"
	 viewBox="0 0 24.8 27" style="enable-background:new 0 0 24.8 27;" xml:space="preserve">
<style type="text/css">
	.st0{fill:#FFFFFF;}
	.st1{fill:none;stroke:#231F20;stroke-miterlimit:10;}
	.st2{fill:#231F20;}
	.st3{fill:none;stroke:#231F20;stroke-width:0.8864;stroke-miterlimit:10;}
	.st4{fill:none;stroke:#000000;stroke-width:3;stroke-miterlimit:10;}
	.st5{fill:#77BCE2;}
	.st6{fill:none;stroke:#77BCE2;stroke-width:1.7711;stroke-miterlimit:10;}
	.st7{fill:none;stroke:#77BCE2;stroke-width:1.9592;stroke-linecap:round;stroke-linejoin:round;stroke-miterlimit:10;}
	.st8{fill:#FFFFFF;stroke:#77BCE2;stroke-width:1.9592;stroke-linecap:round;stroke-linejoin:round;stroke-miterlimit:10;}
	.st9{fill:none;stroke:#77BCE2;stroke-width:2;stroke-linecap:round;stroke-linejoin:round;stroke-miterlimit:10;}
</style>
<g id="Layer_2">
</g>
<g id="Layer_1">
	<path class="st5" d="M19.4,1.9c1.9,0,3.5,1.6,3.5,3.5c0,1.9-1.6,3.5-3.5,3.5c-0.9,0-1.8-0.4-2.4-0.9l-8.2,4.8
		c0.1,0.3,0.1,0.5,0.1,0.8s0,0.6-0.1,0.8l8.3,4.9c0.6-0.6,1.4-0.9,2.3-0.9c1.9,0,3.4,1.5,3.4,3.4s-1.5,3.4-3.4,3.4
		c-1.9,0-3.4-1.5-3.4-3.4c0-0.3,0-0.5,0.1-0.8l-8.3-4.9c-0.6,0.6-1.5,0.9-2.4,0.9c-1.9,0-3.5-1.6-3.5-3.5c0-1.9,1.6-3.5,3.5-3.5
		c0.9,0,1.8,0.4,2.4,0.9L16,6.2c-0.1-0.3-0.1-0.5-0.1-0.8C15.9,3.4,17.5,1.9,19.4,1.9 M19.4,0c-2.9,0-5.3,2.3-5.4,5.2L7.8,8.8
		C7.1,8.4,6.2,8.2,5.4,8.2c-3,0-5.4,2.4-5.4,5.4s2.4,5.4,5.4,5.4c0.9,0,1.7-0.2,2.5-0.6l6.3,3.7c0.1,2.8,2.4,5,5.3,5
		c2.9,0,5.3-2.4,5.3-5.3s-2.4-5.3-5.3-5.3c-0.8,0-1.6,0.2-2.4,0.6l-6-3.5l5.9-3.4c0.8,0.4,1.6,0.6,2.5,0.6c3,0,5.4-2.4,5.4-5.4
		C24.8,2.4,22.3,0,19.4,0L19.4,0z"/>
</g>
</svg>
