<?xml version="1.0" encoding="utf-8"?>
<!-- Generator: Adobe Illustrator 21.0.0, SVG Export Plug-In . SVG Version: 6.00 Build 0)  -->
<svg version="1.1" id="Layer_1" xmlns="http://www.w3.org/2000/svg" xmlns:xlink="http://www.w3.org/1999/xlink" x="0px" y="0px"
	 viewBox="0 0 17.9 42" style="enable-background:new 0 0 17.9 42;" xml:space="preserve">
<style type="text/css">
	.st0{fill:#FFFFFF;}
	.st1{fill:#FFD878;}
	.st2{fill:none;stroke:#231F20;stroke-miterlimit:10;}
	.st3{fill:#231F20;}
	.st4{fill:none;stroke:#000000;stroke-width:3;stroke-miterlimit:10;}
	.st5{clip-path:url(#SVGID_2_);}
	.st6{fill:none;stroke:#10465B;stroke-width:2.082;stroke-linecap:round;stroke-linejoin:round;stroke-miterlimit:10;}
	.st7{fill:#10465B;}
	.st8{fill:none;stroke:#10465B;stroke-width:1.2299;stroke-linecap:round;stroke-linejoin:round;stroke-miterlimit:10;}
</style>
<path class="st1" d="M3.4,36.4l3.6-0.8v-17L3,17.9v-4.5h11.3v22.2l3.5,0.8v4.4H3.4V36.4z M10.6,0C8.4,0,6.6,1.8,6.6,4.1
	s1.8,4.1,4.1,4.1s4.1-1.8,4.1-4.1S12.9,0,10.6,0z"/>
<path class="st7" d="M11.3,34.4v1.8l-7.4-7.6v-1.8L11.3,34.4z M14.3,37.4L12.1,37l2.8,2.9v-1.8L14.3,37.4z M3.9,21.6v1.8l7.4,7.6
	v-1.8L3.9,21.6z M0.4,39v1.8L1.6,42h1.7L0.4,39z M3.9,32.1v1.8l7.9,8.1h1.7L3.9,32.1z M3.5,36.9l-1.4,0.3L6.8,42h1.7L3.5,36.9z
	 M0,17.6v1.5l1.8,0.3L0,17.6z M5.3,2C5,2.2,4.7,2.5,4.4,2.8L10,8.6c0.3-0.2,0.6-0.5,0.9-0.9L5.3,2z M8,1.2L11.7,5
	C11.6,3,10,1.4,8,1.2z M2.2,14.6H0.5l10.8,11.1v-1.8L2.2,14.6z M7.3,9.3L3.6,5.5C3.7,7.5,5.3,9.2,7.3,9.3z M11.3,15.2v-0.6h-0.6
	L11.3,15.2z M7.4,14.6H5.7l5.7,5.8v-1.8L7.4,14.6z"/>
</svg>
