<?xml version="1.0" encoding="utf-8"?>
<!-- Generator: Adobe Illustrator 21.0.0, SVG Export Plug-In . SVG Version: 6.00 Build 0)  -->
<svg version="1.1" xmlns="http://www.w3.org/2000/svg" xmlns:xlink="http://www.w3.org/1999/xlink" x="0px" y="0px"
	 viewBox="0 0 29.2 27" style="enable-background:new 0 0 29.2 27;" xml:space="preserve">
<style type="text/css">
	.st0{fill:#FFFFFF;}
	.st1{fill:none;stroke:#231F20;stroke-miterlimit:10;}
	.st2{fill:#231F20;}
	.st3{fill:none;stroke:#231F20;stroke-width:0.8864;stroke-miterlimit:10;}
	.st4{fill:none;stroke:#000000;stroke-width:3;stroke-miterlimit:10;}
	.st5{fill:#77BCE2;}
	.st6{fill:none;stroke:#77BCE2;stroke-width:1.7711;stroke-miterlimit:10;}
	.st7{fill:none;stroke:#77BCE2;stroke-width:1.9592;stroke-linecap:round;stroke-linejoin:round;stroke-miterlimit:10;}
	.st8{fill:#FFFFFF;stroke:#77BCE2;stroke-width:1.9592;stroke-linecap:round;stroke-linejoin:round;stroke-miterlimit:10;}
	.st9{fill:none;stroke:#77BCE2;stroke-width:2;stroke-linecap:round;stroke-linejoin:round;stroke-miterlimit:10;}
</style>
<g id="Layer_2">
</g>
<g id="Layer_1">
	<g>
		<path class="st5" d="M20.3,27H8.8c-0.6,0-1-0.4-1-1V15.1H1c-0.4,0-0.8-0.2-0.9-0.6S0,13.7,0.3,13.4L13.9,0.3c0.4-0.4,1-0.4,1.4,0
			l13.6,13.1c0.3,0.3,0.4,0.7,0.2,1.1s-0.5,0.6-0.9,0.6h-6.8V26C21.3,26.6,20.9,27,20.3,27z M9.8,25h9.5V14.1c0-0.6,0.4-1,1-1h5.3
			L14.6,2.4L3.5,13.1h5.3c0.6,0,1,0.4,1,1V25z"/>
	</g>
</g>
</svg>
