<?xml version="1.0" encoding="utf-8"?>
<!-- Generator: Adobe Illustrator 21.0.0, SVG Export Plug-In . SVG Version: 6.00 Build 0)  -->
<svg version="1.1" id="Layer_1" xmlns="http://www.w3.org/2000/svg" xmlns:xlink="http://www.w3.org/1999/xlink" x="0px" y="0px"
	 viewBox="0 0 39.9 41.9" style="enable-background:new 0 0 39.9 41.9;" xml:space="preserve">
<style type="text/css">
	.st0{fill:#FFFFFF;}
	.st1{fill:#FFD878;}
	.st2{fill:none;stroke:#231F20;stroke-miterlimit:10;}
	.st3{fill:#231F20;}
	.st4{fill:none;stroke:#000000;stroke-width:3;stroke-miterlimit:10;}
	.st5{clip-path:url(#SVGID_2_);}
	.st6{fill:none;stroke:#10465B;stroke-width:2.082;stroke-linecap:round;stroke-linejoin:round;stroke-miterlimit:10;}
	.st7{fill:#10465B;}
	.st8{fill:none;stroke:#10465B;stroke-width:1.2299;stroke-linecap:round;stroke-linejoin:round;stroke-miterlimit:10;}
</style>
<path class="st1" d="M33.7,28.9c-1.6,0-3,0.6-4,1.6l-14.6-8.5c0.1-0.5,0.2-0.9,0.2-1.4s-0.1-1-0.2-1.4l14.4-8.4
	c1.1,1,2.6,1.7,4.2,1.7c3.4,0,6.1-2.8,6.1-6.1S37.1,0,33.7,0c-3.4,0-6.1,2.8-6.1,6.1c0,0.5,0.1,1,0.2,1.4L13.3,16
	c-1.1-1-2.6-1.7-4.2-1.7c-3.4,0-6.1,2.8-6.1,6.1s2.8,6.1,6.1,6.1c1.6,0,3.1-0.6,4.2-1.7l14.6,8.5c-0.1,0.4-0.2,0.9-0.2,1.3
	c0,3.3,2.7,6,6,6c3.3,0,6-2.7,6-6C39.7,31.5,37,28.9,33.7,28.9z"/>
<path class="st7" d="M19.7,31.6l-4-2.3L3.1,16.4c0.4-0.2,0.8-0.4,1.2-0.5L19.7,31.6z M12.1,20.4c0,0,0-0.1,0-0.1l1-0.6l-2.5-2.6
	l-0.3,0.2c-0.8-0.7-1.7-1.2-2.8-1.5L12.1,20.4z M24.8,36.9c0.4,2.5,2.4,4.6,4.9,5L24.8,36.9z M22.3,29.1l-4-2.3l14.5,14.9
	c0.4-0.2,0.8-0.3,1.2-0.6L22.3,29.1z M30.7,1.2c-0.4,0-0.9,0.1-1.3,0.1l7.3,7.5c0.1-0.5,0.2-1,0.2-1.5c0,0,0-0.1,0-0.1l-5.9-6
	C30.9,1.2,30.8,1.2,30.7,1.2z M1.2,18c-0.3,0.3-0.5,0.7-0.7,1.1l8,8.2c0.4-0.2,0.8-0.4,1.1-0.6L1.2,18z M0,22c0,0.8,0.2,1.7,0.6,2.4
	l2.7,2.8c0.7,0.4,1.5,0.6,2.4,0.7L0,22z M13.8,15.1l-1.1,0.6l2.5,2.6l1.1-0.6L13.8,15.1z M23.6,9.4l-1.1,0.6l2.5,2.6l1.1-0.6
	L23.6,9.4z M24.9,5.4c-0.2,0.5-0.2,1-0.3,1.5l6.4,6.6c0.5,0,1-0.1,1.5-0.2L24.9,5.4z M27,2.4c-0.3,0.2-0.6,0.5-0.9,0.8l8.6,8.8
	c0.3-0.3,0.6-0.6,0.9-0.9L27,2.4z M31.9,30.2l4.7,4.8C36.2,32.6,34.3,30.7,31.9,30.2z M28.7,30.4c-0.4,0.1-0.8,0.3-1.2,0.6l8.1,8.3
	c0.2-0.4,0.4-0.7,0.6-1.2L28.7,30.4z M20.4,11.3L19.3,12l2.5,2.6l1.1-0.6L20.4,11.3z M16,13.9l2.5,2.6l1.1-0.6l-2.5-2.6L16,13.9z"/>
</svg>
