<?xml version="1.0" encoding="utf-8"?>
<!-- Generator: Adobe Illustrator 21.0.0, SVG Export Plug-In . SVG Version: 6.00 Build 0)  -->
<svg version="1.1" id="Layer_1" xmlns="http://www.w3.org/2000/svg" xmlns:xlink="http://www.w3.org/1999/xlink" x="0px" y="0px"
	 viewBox="0 0 29.8 70" style="enable-background:new 0 0 29.8 70;" xml:space="preserve">
<style type="text/css">
	.st0{fill:#FFFFFF;}
	.st1{fill:#FFD878;}
	.st2{fill:none;stroke:#231F20;stroke-miterlimit:10;}
	.st3{fill:#231F20;}
	.st4{fill:none;stroke:#000000;stroke-width:3;stroke-miterlimit:10;}
	.st5{clip-path:url(#SVGID_2_);}
	.st6{fill:none;stroke:#10465B;stroke-width:2.082;stroke-linecap:round;stroke-linejoin:round;stroke-miterlimit:10;}
	.st7{fill:#10465B;}
	.st8{fill:none;stroke:#10465B;stroke-width:1.2299;stroke-linecap:round;stroke-linejoin:round;stroke-miterlimit:10;}
</style>
<path class="st1" d="M5.6,60.6l5.9-1.3V31L5,29.8v-7.4h18.9v37l5.9,1.3V68H5.6V60.6z M17.7,0c-3.8,0-6.8,3-6.8,6.8s3,6.8,6.8,6.8
	s6.8-3,6.8-6.8S21.5,0,17.7,0z"/>
<path class="st7" d="M6.6,44l12.3,12.3v2.9L6.6,47V44z M6.6,51.4v2.9L22.3,70h2.5v-0.4L6.6,51.4z M24.8,65.2v-2.6l-3.3-0.7
	L24.8,65.2z M2.7,62.2l-2.1,0.4V63l7,7h2.9L2.7,62.2z M0,30.1v1.7l2.1,0.4L0,30.1z M0.6,67.4V70h2.6L0.6,67.4z M6.6,58.7v2.7
	l-0.2,0.1l8.6,8.6h2.9L6.6,58.7z M9.5,2.8C8.9,3.2,8.3,3.6,7.8,4.1l9.6,9.6c0.5-0.5,0.9-1,1.3-1.7L9.5,2.8z M13.1,2l6.4,6.4
	C19.4,5,16.6,2.2,13.1,2z M6.2,6.9C6,7.5,5.9,8.1,5.9,8.8c0,0.3,0,0.6,0.1,0.8l5.9,5.9c0.3,0,0.6,0.1,0.8,0.1c0.7,0,1.3-0.1,1.9-0.3
	L6.2,6.9z M6.6,36.7v2.9l12.3,12.3V49L6.6,36.7z M1.6,24.3H0v1.3l18.9,18.9v-2.9L1.6,24.3z M9,24.3H6l12.9,12.9v-2.9L9,24.3z
	 M16.3,24.3h-2.9l5.5,5.5v-2.9L16.3,24.3z"/>
</svg>
