<?xml version="1.0" encoding="utf-8"?>
<!-- Generator: Adobe Illustrator 21.0.0, SVG Export Plug-In . SVG Version: 6.00 Build 0)  -->
<svg version="1.1" id="Layer_1" xmlns="http://www.w3.org/2000/svg" xmlns:xlink="http://www.w3.org/1999/xlink" x="0px" y="0px"
	 viewBox="0 0 73 70" style="enable-background:new 0 0 73 70;" xml:space="preserve">
<style type="text/css">
	.st0{fill:#FFFFFF;}
	.st1{fill:#FFD878;}
	.st2{fill:none;stroke:#231F20;stroke-miterlimit:10;}
	.st3{fill:#231F20;}
	.st4{fill:none;stroke:#000000;stroke-width:3;stroke-miterlimit:10;}
	.st5{clip-path:url(#SVGID_2_);}
	.st6{fill:none;stroke:#10465B;stroke-width:2.082;stroke-linecap:round;stroke-linejoin:round;stroke-miterlimit:10;}
	.st7{fill:#10465B;}
	.st8{fill:none;stroke:#10465B;stroke-width:1.2299;stroke-linecap:round;stroke-linejoin:round;stroke-miterlimit:10;}
</style>
<path class="st1" d="M33.6,39.3c-9-9-9-23.6,0-32.6s23.6-9,32.6,0s9,23.6,0,32.6S42.6,48.3,33.6,39.3z M62.2,10.8
	C55.4,4,44.4,4,37.7,10.8s-6.8,17.8,0,24.5s17.8,6.8,24.5,0S69,17.5,62.2,10.8z M57,26.8L53.2,23l3.8-3.8c0.9-0.9,0.9-2.3,0-3.2
	c-0.9-0.9-2.3-0.9-3.2,0l-3.8,3.8L46.2,16c-0.9-0.9-2.3-0.9-3.2,0c-0.9,0.9-0.9,2.3,0,3.2l3.8,3.8l-3.8,3.8c-0.9,0.9-0.9,2.3,0,3.2
	c0.9,0.9,2.3,0.9,3.2,0l3.8-3.8l3.8,3.8c0.9,0.9,2.3,0.9,3.2,0C57.8,29.2,57.8,27.7,57,26.8z M32.1,44.9l3.7-3.7
	c-0.7-0.6-1.5-1.2-2.2-1.9s-1.3-1.4-1.9-2.2L28,40.9c-1.3-0.1-2.7,0.3-3.7,1.3l-18,18c-1.8,1.8-1.8,4.7,0,6.5c1.8,1.8,4.7,1.8,6.5,0
	l18-18C31.8,47.6,32.2,46.3,32.1,44.9z"/>
<path class="st7" d="M52,28.8L48.2,25l3.8-3.8c0.9-0.9,0.9-2.3,0-3.2s-2.3-0.9-3.2,0l-3.8,3.8L41.2,18c-0.9-0.9-2.3-0.9-3.2,0
	s-0.9,2.3,0,3.2l3.8,3.8l-3.8,3.8c-0.9,0.9-0.9,2.3,0,3.2c0.9,0.9,2.3,0.9,3.2,0l3.8-3.8l3.8,3.8c0.9,0.9,2.3,0.9,3.2,0
	C52.8,31.2,52.8,29.7,52,28.8z"/>
<path class="st7" d="M23.8,52.7l-1.5,1.5l-6.5-6.5l1.5-1.5L23.8,52.7z M13.7,49.9l-1.5,1.5l6.5,6.5l1.5-1.5L13.7,49.9z M22.3,29.2
	c0.3,1.4,0.6,2.7,1.1,4.1l13.3,13.3c1.3,0.5,2.7,0.9,4.1,1.1L22.3,29.2z M36.7,9.8c0.7-0.4,1.3-0.7,2-0.9l-4.3-4.3
	c-0.6,0.3-1.3,0.7-1.9,1.1L36.7,9.8z M39.8,2.6c-0.8,0.2-1.5,0.4-2.3,0.6l4.7,4.7c0.9-0.1,1.8-0.2,2.7-0.2L39.8,2.6z M25.9,40.1
	l-1.5,1.5l4,4l1.5-1.5L25.9,40.1z M43.7,2.1l6.4,6.4c2.6,0.8,5,2.2,7.1,4.3s3.5,4.5,4.3,7.1l6.4,6.4c0.1-1,0.1-2,0-3L46.7,2.1
	C45.7,2,44.7,2,43.7,2.1z M2.6,60.9l-1.3,1.3c-0.1,0.1-0.1,0.1-0.1,0.2l6.4,6.4c0.1-0.1,0.1-0.1,0.2-0.1l1.3-1.3L2.6,60.9z M4.4,70
	L0,65.6c0,1.1,0.5,2.2,1.3,3C2.2,69.5,3.3,69.9,4.4,70z M10,53.6L8.5,55l6.5,6.5l1.5-1.5L10,53.6z M6.3,57.2l-1.5,1.5l6.5,6.5
	l1.5-1.5L6.3,57.2z M21.5,43c-0.7,0.2-1.4,0.5-1.9,1l6.4,6.4c0.5-0.6,0.8-1.2,1-1.9L21.5,43z M61.1,31.2c-0.3,0.7-0.6,1.4-0.9,2
	l4.2,4.2c0.4-0.6,0.8-1.2,1.1-1.9L61.1,31.2z M54.6,39.4c-0.6,0.4-1.2,0.8-1.9,1.1l4.2,4.2c0.6-0.4,1.2-0.8,1.8-1.2L54.6,39.4z
	 M58.5,35.9c-0.4,0.5-0.8,0.9-1.2,1.4c-0.1,0.1-0.1,0.1-0.2,0.1l4,4c0.1-0.1,0.1-0.1,0.2-0.1c0.4-0.4,0.9-0.9,1.3-1.4L58.5,35.9z
	 M58,6.1c-1.8-1.3-3.8-2.2-5.8-2.9l14.6,14.6c-0.7-2-1.6-4-2.9-5.8L58,6.1z M62.3,25c0,0.9-0.1,1.8-0.2,2.7l4.7,4.7
	c0.3-0.8,0.5-1.5,0.6-2.3L62.3,25z M29.5,17.2c0.3-0.6,0.7-1.3,1.1-1.9l-4.1-4.1c-0.4,0.6-0.8,1.2-1.2,1.8L29.5,17.2z M32.5,12.9
	c0.1-0.1,0.1-0.1,0.1-0.2c0.4-0.4,0.9-0.9,1.4-1.2l-4-4c-0.5,0.4-0.9,0.8-1.4,1.3c-0.1,0.1-0.1,0.1-0.1,0.2L32.5,12.9z M49.6,41.7
	c-0.8,0.2-1.6,0.4-2.5,0.5l4.8,4.8c0.7-0.2,1.4-0.5,2.2-0.8L49.6,41.7z M27.8,22.9c0.1-0.8,0.3-1.7,0.5-2.5l-4.5-4.5
	c-0.3,0.7-0.6,1.4-0.8,2.2L27.8,22.9z M42.7,42.2c-1.3-0.2-2.6-0.5-3.9-1l6.8,6.8c0.9,0,1.8-0.1,2.7-0.2L42.7,42.2z M28.7,31.2
	c-0.5-1.3-0.8-2.6-1-3.9l-5.6-5.6c-0.1,0.9-0.2,1.8-0.2,2.7L28.7,31.2z"/>
</svg>
