<?xml version="1.0" encoding="utf-8"?>
<!-- Generator: Adobe Illustrator 21.0.0, SVG Export Plug-In . SVG Version: 6.00 Build 0)  -->
<svg version="1.1" xmlns="http://www.w3.org/2000/svg" xmlns:xlink="http://www.w3.org/1999/xlink" x="0px" y="0px"
	 viewBox="0 0 71.7 67" style="enable-background:new 0 0 71.7 67;" xml:space="preserve">
<style type="text/css">
	.st0{fill:#FFFFFF;}
	.st1{fill:none;stroke:#231F20;stroke-miterlimit:10;}
	.st2{fill:#231F20;}
	.st3{fill:none;stroke:#231F20;stroke-width:0.8864;stroke-miterlimit:10;}
	.st4{fill:none;stroke:#000000;stroke-width:3;stroke-miterlimit:10;}
	.st5{fill:#77BCE2;}
	.st6{fill:none;stroke:#77BCE2;stroke-width:1.7711;stroke-miterlimit:10;}
	.st7{fill:none;stroke:#77BCE2;stroke-width:1.9592;stroke-linecap:round;stroke-linejoin:round;stroke-miterlimit:10;}
	.st8{fill:#FFFFFF;stroke:#77BCE2;stroke-width:1.9592;stroke-linecap:round;stroke-linejoin:round;stroke-miterlimit:10;}
	.st9{fill:none;stroke:#77BCE2;stroke-width:2;stroke-linecap:round;stroke-linejoin:round;stroke-miterlimit:10;}
</style>
<g id="Layer_2">
</g>
<g id="Layer_1">
	<g>
		<path class="st5" d="M71.6,26.8c-0.2-0.4-0.5-0.6-0.9-0.6H54.5V1c0-0.1,0-0.3-0.1-0.4c0-0.1-0.1-0.2-0.2-0.3c0,0,0,0,0,0
			c0,0,0,0,0,0c-0.1-0.1-0.2-0.1-0.3-0.2C53.8,0,53.7,0,53.5,0c0,0,0,0,0,0H28.2c-0.3,0-0.5,0.1-0.7,0.3l-10,10c0,0,0,0,0,0.1
			c-0.1,0.1-0.1,0.2-0.2,0.3c0,0.1-0.1,0.2-0.1,0.4v15.2H11c-0.3,0-0.5,0.1-0.7,0.3l-10,10c0,0,0,0,0,0c-0.1,0.1-0.1,0.2-0.2,0.3
			c0,0,0,0,0,0c0,0,0,0,0,0C0,36.9,0,37,0,37.1c0,0,0,0,0,0c0,0,0,0,0,0.1c0,0.1,0,0.2,0.1,0.3c0,0,0,0.1,0,0.1
			c0,0.1,0.1,0.2,0.2,0.3l29.9,28.8c0.2,0.2,0.4,0.3,0.7,0.3s0.5-0.1,0.7-0.3l29.9-28.9l10-10C71.7,27.5,71.8,27.1,71.6,26.8z
			 M30.8,64.6L3.4,38.1h14.8c0.5,0,1-0.4,1-1v-10V12h23.4v25.2c0,0.1,0,0.3,0.1,0.4c0,0.1,0.1,0.2,0.2,0.3c0,0,0,0,0,0c0,0,0,0,0,0
			c0.1,0.1,0.2,0.2,0.3,0.2c0.1,0,0.2,0.1,0.4,0.1h14.8L30.8,64.6z M52.5,26.7l-8,8V11.4l8-8V26.7z M28.6,2h22.6l-8,8H20.5L28.6,2z
			 M11.4,28.1h5.8v8H3.3L11.4,28.1z M60.3,36.2H45.9l8-8h14.4L60.3,36.2z"/>
		<polygon class="st5" points="40.5,14 21.2,14 21.2,40.1 8.4,40.1 30.8,61.8 53.3,40.1 40.5,40.1 		"/>
	</g>
</g>
</svg>
