<?xml version="1.0" encoding="utf-8"?>
<!-- Generator: Adobe Illustrator 21.0.0, SVG Export Plug-In . SVG Version: 6.00 Build 0)  -->
<svg version="1.1" id="Layer_1" xmlns="http://www.w3.org/2000/svg" xmlns:xlink="http://www.w3.org/1999/xlink" x="0px" y="0px"
	 viewBox="0 0 78.3 70" style="enable-background:new 0 0 78.3 70;" xml:space="preserve">
<style type="text/css">
	.st0{fill:#FFFFFF;}
	.st1{fill:#FFD878;}
	.st2{fill:none;stroke:#231F20;stroke-miterlimit:10;}
	.st3{fill:#231F20;}
	.st4{fill:none;stroke:#000000;stroke-width:3;stroke-miterlimit:10;}
	.st5{clip-path:url(#SVGID_2_);}
	.st6{fill:none;stroke:#10465B;stroke-width:2.082;stroke-linecap:round;stroke-linejoin:round;stroke-miterlimit:10;}
	.st7{fill:#10465B;}
	.st8{fill:none;stroke:#10465B;stroke-width:1.2299;stroke-linecap:round;stroke-linejoin:round;stroke-miterlimit:10;}
</style>
<polygon class="st1" points="41.4,0 4.5,35.7 25.8,35.7 25.8,68 57.1,68 57.1,35.7 78.3,35.7 "/>
<path class="st7" d="M0,37.2l1.5-1.4l1.9,1.9H0.5L0,37.2z M9,28.5L7.5,30l7.7,7.7h2.9L9,28.5z M20.8,47.6v2.9L40.2,70h2.9L20.8,47.6
	z M20.8,62.3v2.9l4.7,4.7h2.9L20.8,62.3z M20.8,69.7V70h0.3L20.8,69.7z M7.8,37.7h2.9l-5.5-5.5l-1.5,1.4L7.8,37.7z M20.8,40.3v2.9
	L47.5,70h2.9L20.8,40.3z M20.8,55v2.9L32.8,70h2.9L20.8,55z M31.4,6.9l-1.5,1.4l29.4,29.4h2.9L31.4,6.9z M12.7,24.9l-1.5,1.4
	l40.9,40.9v-2.9L12.7,24.9z M27.7,10.5l-1.5,1.4l25.9,25.9v-0.2h2.8L27.7,10.5z M35.1,3.2l-1.5,1.4l33,33h2.9L35.1,3.2z M16.4,21.3
	l-1.5,1.4l37.1,37.1v-2.9L16.4,21.3z M20.2,17.7l-1.5,1.4l33.4,33.4v-2.9L20.2,17.7z M23.9,14.1l-1.5,1.4l29.7,29.7v-2.9L23.9,14.1z
	"/>
</svg>
