<?xml version="1.0" encoding="utf-8"?>
<!-- Generator: Adobe Illustrator 21.0.0, SVG Export Plug-In . SVG Version: 6.00 Build 0)  -->
<svg version="1.1" id="Layer_1" xmlns="http://www.w3.org/2000/svg" xmlns:xlink="http://www.w3.org/1999/xlink" x="0px" y="0px"
	 viewBox="0 0 46 42" style="enable-background:new 0 0 46 42;" xml:space="preserve">
<style type="text/css">
	.st0{fill:#FFFFFF;}
	.st1{fill:#FFD878;}
	.st2{fill:none;stroke:#231F20;stroke-miterlimit:10;}
	.st3{fill:#231F20;}
	.st4{fill:none;stroke:#000000;stroke-width:3;stroke-miterlimit:10;}
	.st5{clip-path:url(#SVGID_2_);}
	.st6{fill:none;stroke:#10465B;stroke-width:2.082;stroke-linecap:round;stroke-linejoin:round;stroke-miterlimit:10;}
	.st7{fill:#10465B;}
	.st8{fill:none;stroke:#10465B;stroke-width:1.2299;stroke-linecap:round;stroke-linejoin:round;stroke-miterlimit:10;}
</style>
<polygon class="st1" points="23.9,40.8 46,19.4 33.3,19.4 33.3,0 14.5,0 14.5,19.4 1.7,19.4 "/>
<path class="st7" d="M32.3,31l-0.9,0.9l-20-20.5V9.6L32.3,31z M11.5,4.3v1.8l22.6,23.2l0.9-0.9L11.5,4.3z M11.5,14.8v1.8l17.3,17.8
	l0.9-0.9L11.5,14.8z M6.8,20.6H5.1l18.4,18.9l0.9-0.9L6.8,20.6z M1.7,20.6H0l20.8,21.3l0.1,0.1l0.9-0.9L1.7,20.6z M11.5,20.1v0.5
	h-1.2l15.9,16.3l0.9-0.9L11.5,20.1z M23.8,1.2h-1.7l8.2,8.4V7.9L23.8,1.2z M37.6,20.6h-1.7l3.5,3.6l0.9-0.9L37.6,20.6z M30.3,14.9
	v-1.8L18.7,1.2h-1.7L30.3,14.9z M28.9,1.2h-1.7l3.1,3.2V2.6L28.9,1.2z M42.7,20.6H41l1,1l0.9-0.9L42.7,20.6z M32.5,20.6h-1.7l6,6.1
	l0.9-0.9L32.5,20.6z M30.3,20.1v-1.8L13.5,1.2h-1.7L30.3,20.1z"/>
</svg>
