<?xml version="1.0" encoding="utf-8"?>
<!-- Generator: Adobe Illustrator 21.0.0, SVG Export Plug-In . SVG Version: 6.00 Build 0)  -->
<svg version="1.1" xmlns="http://www.w3.org/2000/svg" xmlns:xlink="http://www.w3.org/1999/xlink" x="0px" y="0px"
	 viewBox="0 0 27 27" style="enable-background:new 0 0 27 27;" xml:space="preserve">
<style type="text/css">
	.st0{fill:#FFFFFF;}
	.st1{fill:none;stroke:#231F20;stroke-miterlimit:10;}
	.st2{fill:#231F20;}
	.st3{fill:none;stroke:#231F20;stroke-width:0.8864;stroke-miterlimit:10;}
	.st4{fill:none;stroke:#000000;stroke-width:3;stroke-miterlimit:10;}
	.st5{fill:#77BCE2;}
	.st6{fill:none;stroke:#77BCE2;stroke-width:1.7711;stroke-miterlimit:10;}
	.st7{fill:none;stroke:#77BCE2;stroke-width:1.9592;stroke-linecap:round;stroke-linejoin:round;stroke-miterlimit:10;}
	.st8{fill:#FFFFFF;stroke:#77BCE2;stroke-width:1.9592;stroke-linecap:round;stroke-linejoin:round;stroke-miterlimit:10;}
	.st9{fill:none;stroke:#77BCE2;stroke-width:2;stroke-linecap:round;stroke-linejoin:round;stroke-miterlimit:10;}
</style>
<g id="Layer_2">
</g>
<g id="Layer_1">
	<path class="st5" d="M20.7,10.6l-1.5-1.5l1.5-1.5c0.4-0.4,0.4-0.9,0-1.3s-0.9-0.4-1.3,0l-1.5,1.5l-1.5-1.5c-0.4-0.4-0.9-0.4-1.3,0
		c-0.4,0.4-0.4,0.9,0,1.3l1.5,1.5l-1.5,1.5c-0.4,0.4-0.4,0.9,0,1.3c0.4,0.4,0.9,0.4,1.3,0l1.5-1.5l1.5,1.5c0.4,0.4,0.9,0.4,1.3,0
		C21.1,11.5,21.1,10.9,20.7,10.6z M24.3,2.7c-1.7-1.7-4-2.7-6.4-2.7s-4.7,0.9-6.4,2.7c-1.7,1.7-2.7,4-2.7,6.4c0,2,0.7,4,1.9,5.6
		l-1.5,1.6c-0.5-0.1-1.1,0.1-1.5,0.5l-7.2,7.2c-0.7,0.7-0.7,1.9,0,2.6c0.7,0.7,1.9,0.7,2.6,0l7.2-7.2c0.4-0.4,0.6-1,0.5-1.5l1.6-1.5
		c1.6,1.2,3.5,1.9,5.6,1.9c2.4,0,4.7-0.9,6.4-2.7c1.7-1.7,2.7-4,2.7-6.4S26.1,4.4,24.3,2.7z M23,14.2c-1.4,1.4-3.2,2.1-5.1,2.1
		s-3.7-0.7-5.1-2.1h0c-1.4-1.4-2.1-3.2-2.1-5.1s0.7-3.7,2.1-5.1c1.4-1.4,3.2-2.1,5.1-2.1S21.6,2.7,23,4c1.4,1.4,2.1,3.2,2.1,5.1
		S24.3,12.8,23,14.2z"/>
</g>
</svg>
