<?xml version="1.0" encoding="utf-8"?>
<!-- Generator: Adobe Illustrator 21.0.0, SVG Export Plug-In . SVG Version: 6.00 Build 0)  -->
<svg version="1.1" xmlns="http://www.w3.org/2000/svg" xmlns:xlink="http://www.w3.org/1999/xlink" x="0px" y="0px"
	 viewBox="0 0 32 67" style="enable-background:new 0 0 32 67;" xml:space="preserve">
<style type="text/css">
	.st0{fill:#FFFFFF;}
	.st1{fill:none;stroke:#231F20;stroke-miterlimit:10;}
	.st2{fill:#231F20;}
	.st3{fill:none;stroke:#231F20;stroke-width:0.8864;stroke-miterlimit:10;}
	.st4{fill:none;stroke:#000000;stroke-width:3;stroke-miterlimit:10;}
	.st5{fill:#77BCE2;}
	.st6{fill:none;stroke:#77BCE2;stroke-width:1.7711;stroke-miterlimit:10;}
	.st7{fill:none;stroke:#77BCE2;stroke-width:1.9592;stroke-linecap:round;stroke-linejoin:round;stroke-miterlimit:10;}
	.st8{fill:#FFFFFF;stroke:#77BCE2;stroke-width:1.9592;stroke-linecap:round;stroke-linejoin:round;stroke-miterlimit:10;}
	.st9{fill:none;stroke:#77BCE2;stroke-width:2;stroke-linecap:round;stroke-linejoin:round;stroke-miterlimit:10;}
</style>
<g id="Layer_2">
</g>
<g id="Layer_1">
	<path class="st5" d="M32,50c0-0.1,0-0.2-0.1-0.3c0,0,0-0.1-0.1-0.1c0-0.1-0.1-0.2-0.1-0.2c0,0,0,0,0,0c0,0,0,0-0.1,0
		c-0.1-0.1-0.1-0.1-0.2-0.1c0,0-0.1,0-0.1-0.1c0,0-0.1,0-0.1,0l-4-0.9V19.1c0-0.1,0-0.3-0.1-0.4c0-0.1-0.1-0.2-0.2-0.3c0,0,0,0,0,0
		c0,0,0,0,0,0c-0.1-0.1-0.2-0.2-0.3-0.2c-0.1,0-0.2-0.1-0.4-0.1h-7.4l7-7c1.2-1.2,1.9-2.8,1.9-4.6c0-1.7-0.7-3.4-1.9-4.6
		c-2.5-2.5-6.6-2.5-9.2,0l-10,10c-0.3,0.3-0.6,0.6-0.8,1c0,0,0,0,0,0c-0.1,0.1-0.2,0.3-0.3,0.4c0,0-0.1,0.1-0.1,0.1
		c-0.1,0.1-0.1,0.2-0.2,0.3c0,0.1-0.1,0.2-0.1,0.2c0,0.1-0.1,0.2-0.1,0.3c0,0.1-0.1,0.2-0.1,0.3c0,0.1,0,0.1,0,0.2
		c0,0.2-0.1,0.3-0.1,0.5c0,0,0,0,0,0c-0.1,0.4-0.1,0.8-0.1,1.2c0,0.4,0,0.8,0.1,1.2c0,0,0,0,0,0C5,17.9,5,18,5,18.2c0,0,0,0.1,0,0.1
		c0,0.1,0.1,0.2,0.1,0.4c0,0.1,0.1,0.2,0.1,0.2c0,0.1,0.1,0.2,0.1,0.3c0.1,0.1,0.1,0.2,0.2,0.3c0,0.1,0.1,0.1,0.1,0.2
		c0.1,0.1,0.2,0.3,0.2,0.4c0,0,0,0,0,0c0.2,0.3,0.5,0.6,0.8,0.9c0.1,0.1,0.3,0.3,0.5,0.4l-6.9,6.9c0,0,0,0,0,0
		c-0.1,0.1-0.2,0.2-0.2,0.3C0,28.8,0,28.9,0,29v6c0,0.5,0.3,0.9,0.8,1l4.5,0.9v21.3l-4,0.9c-0.5,0.1-0.8,0.5-0.8,1v0v6
		c0,0.5,0.4,1,1,1H21c0.1,0,0.3,0,0.4-0.1c0.1,0,0.2-0.1,0.3-0.2c0,0,0,0,0,0l10-10c0.2-0.2,0.3-0.4,0.3-0.7L32,50
		C32,50,32,50,32,50z M29.1,50.6l-8.3,8.3l-3.5-0.7V29.5l8-8V49c0,0.5,0.3,0.9,0.8,1L29.1,50.6z M7.5,19c-0.1-0.1-0.1-0.3-0.2-0.4
		c-0.1-0.1-0.2-0.3-0.2-0.4C7.1,18.1,7,17.9,7,17.8c0-0.2-0.1-0.3-0.1-0.5c0-0.1,0-0.3,0-0.4c0-0.3,0-0.6,0-0.9c0-0.2,0-0.3,0-0.5
		c0-0.2,0.1-0.3,0.1-0.5c0-0.1,0.1-0.3,0.1-0.4c0.1-0.1,0.1-0.2,0.2-0.4c0.1-0.1,0.1-0.3,0.2-0.4c0.1-0.1,0.2-0.2,0.3-0.4
		c0.8-1,2.1-1.6,3.5-1.6c2.5,0,4.5,2,4.5,4.5c0,1.5-0.8,2.9-2,3.7c-0.1,0-0.1,0.1-0.2,0.1c-0.2,0.1-0.3,0.2-0.5,0.3
		c-0.1,0-0.2,0.1-0.3,0.1c-0.1,0.1-0.3,0.1-0.4,0.1c-0.1,0-0.2,0.1-0.4,0.1c-0.1,0-0.2,0-0.4,0c-0.8,0.1-1.7-0.1-2.5-0.5
		c0,0,0,0,0,0c-0.5-0.3-0.9-0.6-1.3-1C7.8,19.3,7.6,19.1,7.5,19z M18.1,3.3C19,2.4,20.1,2,21.3,2c1.2,0,2.3,0.4,3.2,1.3
		c1.8,1.8,1.8,4.6,0,6.4l-6.7,6.7c0-3.5-2.9-6.3-6.4-6.4L18.1,3.3z M11.3,22.9c0.7,0,1.5-0.1,2.2-0.4c0,0,0.1,0,0.1,0
		c0.5-0.2,1.1-0.5,1.5-0.8c0.1,0,0.1-0.1,0.2-0.1c0.2-0.2,0.4-0.4,0.7-0.6l0.5-0.5l0.5-0.5h7l-8,8H3.3l5.6-5.6
		C9.7,22.8,10.5,22.9,11.3,22.9z M2.5,65v-4.2l4-0.9c0.1,0,0.2-0.1,0.2-0.1c0,0,0,0,0.1,0c0,0,0,0,0,0c0.3-0.2,0.4-0.5,0.4-0.8V36.1
		v0c0-0.5-0.3-0.9-0.8-1L2,34.2V30h13.3v29c0,0.5,0.3,0.9,0.8,1l4,0.9V65H2.5z M22,63.6v-3.2l8-8v3.2L22,63.6z M4.5,63v-0.5l4.8-1
		V33.6l-5.3-1V32h9.3v29.4l4.8,1V63H4.5z M11.3,18.9c-1.4,0-2.5-1.1-2.5-2.5S9.9,14,11.3,14c1.4,0,2.5,1.1,2.5,2.5
		S12.7,18.9,11.3,18.9z"/>
</g>
</svg>
