<?xml version="1.0" encoding="utf-8"?>
<!-- Generator: Adobe Illustrator 21.0.0, SVG Export Plug-In . SVG Version: 6.00 Build 0)  -->
<svg version="1.1" id="Layer_1" xmlns="http://www.w3.org/2000/svg" xmlns:xlink="http://www.w3.org/1999/xlink" x="0px" y="0px"
	 viewBox="0 0 78.6 70.2" style="enable-background:new 0 0 78.6 70.2;" xml:space="preserve">
<style type="text/css">
	.st0{fill:#FFFFFF;}
	.st1{fill:#FFD878;}
	.st2{fill:none;stroke:#231F20;stroke-miterlimit:10;}
	.st3{fill:#231F20;}
	.st4{fill:none;stroke:#000000;stroke-width:3;stroke-miterlimit:10;}
	.st5{clip-path:url(#SVGID_2_);}
	.st6{fill:none;stroke:#10465B;stroke-width:2.082;stroke-linecap:round;stroke-linejoin:round;stroke-miterlimit:10;}
	.st7{fill:#10465B;}
	.st8{fill:none;stroke:#10465B;stroke-width:1.2299;stroke-linecap:round;stroke-linejoin:round;stroke-miterlimit:10;}
</style>
<polygon class="st1" points="41.7,68 78.6,32.3 57.4,32.3 57.4,0 26,0 26,32.3 4.8,32.3 "/>
<path class="st7" d="M56.3,51.1l-1.5,1.4L20.8,18.6v-2.9L56.3,51.1z M20.8,23V26L51,56.2l1.5-1.4L20.8,23z M20.8,8.3v2.9L58.5,49
	l1.5-1.4L20.8,8.3z M2.9,34.5H0l12.6,12.6l23.9,23.1l1.1-1L2.9,34.5z M10.3,34.5H7.3L39.8,67l1.5-1.4L10.3,34.5z M17.6,34.5h-2.9
	l28.8,28.8l1.5-1.4L17.6,34.5z M20.8,30.4v2.9l26.5,26.5l1.5-1.4L20.8,30.4z M44.1,2.2h-2.9l11,11v-2.9L44.1,2.2z M69.1,34.5h-2.9
	l3.6,3.6l1.5-1.4L69.1,34.5z M51.4,2.2h-2.9l3.7,3.7V2.9L51.4,2.2z M36.7,2.2h-2.9l18.4,18.4v-2.9L36.7,2.2z M61.7,34.5h-2.9
	l7.2,7.2l1.5-1.4L61.7,34.5z M52.1,27.9V25L29.4,2.2h-2.9L52.1,27.9z M54.4,34.5h-2.2v-2.2L22,2.2h-1.2v1.7l41.4,41.4l1.5-1.4
	L54.4,34.5z"/>
</svg>
