<?xml version="1.0" encoding="utf-8"?>
<!-- Generator: Adobe Illustrator 21.0.0, SVG Export Plug-In . SVG Version: 6.00 Build 0)  -->
<svg version="1.1" xmlns="http://www.w3.org/2000/svg" xmlns:xlink="http://www.w3.org/1999/xlink" x="0px" y="0px"
	 viewBox="0 0 71.3 66.6" style="enable-background:new 0 0 71.3 66.6;" xml:space="preserve">
<style type="text/css">
	.st0{fill:#FFFFFF;}
	.st1{fill:none;stroke:#231F20;stroke-miterlimit:10;}
	.st2{fill:#231F20;}
	.st3{fill:none;stroke:#231F20;stroke-width:0.8864;stroke-miterlimit:10;}
	.st4{fill:none;stroke:#000000;stroke-width:3;stroke-miterlimit:10;}
	.st5{fill:#77BCE2;}
	.st6{fill:none;stroke:#77BCE2;stroke-width:1.7711;stroke-miterlimit:10;}
	.st7{fill:none;stroke:#77BCE2;stroke-width:1.9592;stroke-linecap:round;stroke-linejoin:round;stroke-miterlimit:10;}
	.st8{fill:#FFFFFF;stroke:#77BCE2;stroke-width:1.9592;stroke-linecap:round;stroke-linejoin:round;stroke-miterlimit:10;}
	.st9{fill:none;stroke:#77BCE2;stroke-width:2;stroke-linecap:round;stroke-linejoin:round;stroke-miterlimit:10;}
</style>
<g id="Layer_2">
</g>
<g id="Layer_1">
	<g>
		<path class="st5" d="M71.1,29.1L41.2,0.2c-0.3-0.3-0.8-0.3-1.1,0L10.2,29.1c-0.2,0.2-0.2,0.4-0.2,0.6l-9.8,9.4
			C0.1,39.2,0,39.5,0,39.7c0,0.1,0,0.2,0.1,0.2c0.1,0.3,0.4,0.5,0.7,0.5h16.4v25.4v0c0,0.4,0.4,0.8,0.8,0.8h25.3
			c0.1,0,0.2,0,0.3-0.1c0,0,0,0,0,0c0.1,0,0.2-0.1,0.3-0.2l10-10c0.1-0.1,0.2-0.4,0.2-0.6V40.4h6.4c0.1,0,0.2,0,0.3-0.1
			c0,0,0,0,0.1,0c0.1,0,0.1-0.1,0.2-0.1c0,0,0,0,0,0l10-10c0.2-0.2,0.2-0.4,0.2-0.6C71.3,29.4,71.2,29.2,71.1,29.1z M53.3,38.8
			C53.3,38.8,53.3,38.9,53.3,38.8l-10,0c-0.4,0-0.8,0.4-0.8,0.8V65H18.8V39.6v0c0-0.4-0.4-0.8-0.8-0.8H2.8l27.9-27l27.9,27H53.3z
			 M52.5,55.5l-8.4,8.4V40.4h8.4V55.5z M60.5,38.5L31.6,10.6l9-8.7l28.7,27.8L60.5,38.5z"/>
		<polygon class="st5" points="8.2,36.6 21,36.6 21,62.8 40.3,62.8 40.3,36.6 53.1,36.6 30.7,15 		"/>
	</g>
</g>
</svg>
