<?xml version="1.0" encoding="utf-8"?>
<!-- Generator: Adobe Illustrator 21.0.0, SVG Export Plug-In . SVG Version: 6.00 Build 0)  -->
<svg version="1.1" xmlns="http://www.w3.org/2000/svg" xmlns:xlink="http://www.w3.org/1999/xlink" x="0px" y="0px"
	 viewBox="0 0 67 67" style="enable-background:new 0 0 67 67;" xml:space="preserve">
<style type="text/css">
	.st0{fill:#FFFFFF;}
	.st1{fill:none;stroke:#231F20;stroke-miterlimit:10;}
	.st2{fill:#231F20;}
	.st3{fill:none;stroke:#231F20;stroke-width:0.8864;stroke-miterlimit:10;}
	.st4{fill:none;stroke:#000000;stroke-width:3;stroke-miterlimit:10;}
	.st5{fill:#77BCE2;}
	.st6{fill:none;stroke:#77BCE2;stroke-width:1.7711;stroke-miterlimit:10;}
	.st7{fill:none;stroke:#77BCE2;stroke-width:1.9592;stroke-linecap:round;stroke-linejoin:round;stroke-miterlimit:10;}
	.st8{fill:#FFFFFF;stroke:#77BCE2;stroke-width:1.9592;stroke-linecap:round;stroke-linejoin:round;stroke-miterlimit:10;}
	.st9{fill:none;stroke:#77BCE2;stroke-width:2;stroke-linecap:round;stroke-linejoin:round;stroke-miterlimit:10;}
</style>
<g id="Layer_2">
</g>
<g id="Layer_1">
	<path class="st5" d="M61.2,5.7c-7.7-7.7-20.1-7.7-27.7,0l-10,10c-0.4,0.4-0.8,0.8-1.2,1.3c-0.2,0.2-0.3,0.4-0.5,0.6
		c-0.2,0.2-0.4,0.5-0.5,0.7c-0.2,0.3-0.4,0.6-0.6,0.9c-0.1,0.2-0.2,0.3-0.3,0.5c-0.2,0.3-0.4,0.7-0.6,1.1c-0.1,0.1-0.1,0.3-0.2,0.4
		c-0.2,0.4-0.4,0.8-0.5,1.2c0,0.1-0.1,0.2-0.1,0.3c-0.2,0.4-0.3,0.9-0.4,1.3c0,0.1,0,0.1-0.1,0.2c-0.1,0.5-0.2,0.9-0.3,1.4
		c0,0.1,0,0.1,0,0.2c-0.1,0.5-0.2,1-0.2,1.4c0,0,0,0.1,0,0.1c-0.1,0.5-0.1,1-0.1,1.5c0,0,0,0.1,0,0.1c0,0.5,0,1,0,1.5
		c0,0,0,0.1,0,0.1c0,0.5,0.1,1,0.1,1.5c0,0,0,0.1,0,0.1c0.1,0.5,0.1,1,0.3,1.5c0,0,0,0.1,0,0.1c0.1,0.5,0.2,1,0.4,1.5
		c0,0,0,0.1,0,0.1c0.1,0.5,0.3,1,0.5,1.5c0,0,0,0.1,0,0.1c0.2,0.5,0.4,1,0.6,1.4c0,0,0,0,0,0c0.2,0.5,0.5,1,0.8,1.4l-4.7,4.7
		c0,0,0,0,0,0l-4,4L1.4,59C0.5,59.9,0,61,0,62.3c0,0.8,0.2,1.5,0.5,2.2c0.2,0.4,0.5,0.8,0.8,1.1c0.2,0.2,0.5,0.4,0.7,0.6
		c0,0,0.1,0,0.1,0C2.9,66.7,3.8,67,4.7,67c0.9,0,1.8-0.3,2.5-0.7c0,0,0,0,0.1,0C7.5,66,7.7,65.8,8,65.6L22.5,51c0,0,0,0,0,0l4.6-4.6
		c0.5,0.3,0.9,0.5,1.4,0.8c0,0,0,0,0,0c0.5,0.2,1,0.4,1.4,0.6c0,0,0.1,0,0.1,0c0.5,0.2,1,0.4,1.4,0.5c0,0,0.1,0,0.1,0
		c0.5,0.1,1,0.3,1.5,0.4c0,0,0.1,0,0.1,0c0.5,0.1,1,0.2,1.5,0.2c0,0,0.1,0,0.1,0c0.5,0.1,1,0.1,1.5,0.1c0,0,0.1,0,0.1,0
		c0.5,0,1,0,1.5,0c0.1,0,0.1,0,0.2,0c0.5,0,1-0.1,1.4-0.1c0.1,0,0.1,0,0.2,0c0.5-0.1,0.9-0.1,1.4-0.2c0.1,0,0.1,0,0.2,0
		c0.5-0.1,0.9-0.2,1.4-0.3c0.1,0,0.2-0.1,0.2-0.1c0.4-0.1,0.9-0.3,1.3-0.4c0.1,0,0.2-0.1,0.3-0.1c0.4-0.2,0.8-0.3,1.2-0.5
		c0.1-0.1,0.3-0.1,0.4-0.2c0.4-0.2,0.7-0.4,1-0.6c0.2-0.1,0.3-0.2,0.5-0.3c0.3-0.2,0.6-0.4,0.9-0.6c0.2-0.2,0.5-0.4,0.7-0.5
		c0.2-0.2,0.4-0.3,0.6-0.5c0.4-0.4,0.9-0.8,1.3-1.2l10-10C68.9,25.8,68.9,13.4,61.2,5.7z M49.8,42.1c-0.4,0.4-0.8,0.7-1.2,1.1
		c-0.2,0.2-0.4,0.3-0.6,0.5c-0.2,0.2-0.4,0.3-0.7,0.5c-0.3,0.2-0.5,0.4-0.8,0.5c-0.2,0.1-0.3,0.2-0.5,0.3c-0.3,0.2-0.7,0.3-1,0.5
		c-0.1,0.1-0.2,0.1-0.4,0.2c-0.4,0.2-0.7,0.3-1.1,0.5c-0.1,0-0.2,0.1-0.3,0.1c-0.4,0.1-0.8,0.3-1.2,0.4c-0.1,0-0.1,0-0.2,0.1
		c-0.4,0.1-0.8,0.2-1.3,0.3c-0.1,0-0.1,0-0.2,0c-0.4,0.1-0.9,0.1-1.3,0.2c-0.1,0-0.1,0-0.2,0c-0.4,0-0.9,0.1-1.3,0.1
		c-0.1,0-0.1,0-0.2,0c-0.4,0-0.9,0-1.3,0c0,0-0.1,0-0.1,0c-0.4,0-0.9-0.1-1.3-0.1c0,0-0.1,0-0.1,0c-0.4-0.1-0.9-0.2-1.3-0.3
		c0,0-0.1,0-0.1,0c-0.4-0.1-0.9-0.2-1.3-0.4c0,0-0.1,0-0.1,0c-0.4-0.2-0.9-0.3-1.3-0.5c0,0-0.1,0-0.1,0c-0.4-0.2-0.9-0.4-1.3-0.6
		c0,0,0,0,0,0c-0.4-0.2-0.9-0.5-1.3-0.8c0,0,0,0,0,0c-0.4-0.2-0.7-0.5-1.1-0.8c-0.4-0.3-0.9-0.3-1.3,0.1l-3,3
		c-0.2,0.2-0.3,0.5-0.3,0.8c0.1,0.8-0.2,1.6-0.8,2.2L6.6,64.2c-1,1-2.8,1-3.8,0c-0.1-0.1-0.2-0.3-0.3-0.4c0,0,0-0.1,0-0.1
		c-0.1-0.1-0.1-0.2-0.2-0.4c0,0,0,0,0-0.1C2.1,63.1,2,63,2,62.8c0,0,0,0,0,0c-0.1-0.5,0-1,0.1-1.5c0,0,0,0,0-0.1
		c0.1-0.1,0.1-0.2,0.2-0.4c0,0,0-0.1,0.1-0.1c0.1-0.1,0.2-0.2,0.3-0.3c0,0,0-0.1,0.1-0.1l8.4-8.4l6.2-6.2c0.5-0.5,1.2-0.8,1.9-0.8
		c0.1,0,0.2,0,0.3,0c0.3,0,0.6-0.1,0.8-0.3l3-3c0.3-0.3,0.4-0.9,0.1-1.3c-0.3-0.4-0.5-0.7-0.8-1.1c-0.3-0.4-0.5-0.8-0.8-1.3
		c0,0,0,0,0-0.1c-0.2-0.4-0.4-0.9-0.6-1.3c0,0,0-0.1,0-0.1c-0.2-0.4-0.4-0.9-0.5-1.3c0,0,0-0.1,0-0.1c-0.1-0.4-0.3-0.9-0.4-1.4
		c0,0,0-0.1,0-0.1c-0.1-0.5-0.2-0.9-0.3-1.4c0,0,0-0.1,0-0.1c-0.1-0.5-0.1-0.9-0.2-1.4c0,0,0-0.1,0-0.1c0-0.5,0-0.9,0-1.4
		c0,0,0-0.1,0-0.1c0-0.5,0-0.9,0.1-1.4c0,0,0-0.1,0-0.1c0-0.5,0.1-0.9,0.2-1.4c0,0,0-0.1,0-0.1c0.1-0.4,0.2-0.9,0.3-1.3
		c0-0.1,0-0.1,0.1-0.2c0.1-0.4,0.2-0.8,0.4-1.2c0-0.1,0.1-0.2,0.1-0.3c0.1-0.4,0.3-0.8,0.5-1.1c0.1-0.1,0.1-0.2,0.2-0.3
		c0.2-0.3,0.3-0.7,0.5-1c0.1-0.2,0.2-0.3,0.3-0.5c0.2-0.3,0.3-0.6,0.5-0.8c0.1-0.2,0.3-0.4,0.5-0.6c0.2-0.2,0.3-0.4,0.5-0.6
		c0.3-0.4,0.7-0.8,1.1-1.2c3.3-3.3,7.8-5.2,12.5-5.2s9.2,1.8,12.5,5.2c3.3,3.3,5.2,7.8,5.2,12.5S53.2,38.8,49.8,42.1z M59.8,32.1
		l-4,4c2.4-6.9,0.9-14.9-4.6-20.4c-5.5-5.5-13.5-7-20.4-4.6l4-4c3.4-3.4,8-5.2,12.5-5.2s9,1.7,12.5,5.2C66.7,14,66.7,25.2,59.8,32.1
		z M26.7,19c-5.9,5.9-5.9,15.4,0,21.2c2.8,2.8,6.6,4.4,10.6,4.4c4,0,7.8-1.6,10.6-4.4c5.9-5.9,5.9-15.4,0-21.2
		C42.1,13.1,32.6,13.1,26.7,19z M46.6,38.8c-2.5,2.5-5.7,3.8-9.2,3.8c-3.5,0-6.8-1.4-9.2-3.8c-5.1-5.1-5.1-13.4,0-18.5
		c2.5-2.5,5.9-3.8,9.2-3.8c3.3,0,6.7,1.3,9.2,3.8C51.7,25.5,51.7,33.8,46.6,38.8z M19.9,47.6c0,0.1,0,0.4-0.2,0.6L5.2,62.8
		C5,62.9,4.8,63,4.7,63c-0.1,0-0.3,0-0.5-0.2C4,62.6,4,62.4,4,62.3c0-0.1,0-0.3,0.2-0.5l14.6-14.6c0.1-0.1,0.3-0.2,0.5-0.2l0.6,0.1
		L19.9,47.6z M43,26.6L40,29.6l3.1,3.1c0.7,0.7,0.7,1.9,0,2.6c-0.7,0.7-1.9,0.7-2.6,0l-3.1-3.1l-3.1,3.1c-0.7,0.7-1.9,0.7-2.6,0
		c-0.7-0.7-0.7-1.9,0-2.6l3.1-3.1l-3.1-3.1c-0.7-0.7-0.7-1.9,0-2.6c0.7-0.7,1.9-0.7,2.6,0l3.1,3.1l3.1-3.1c0.7-0.7,1.9-0.7,2.6,0
		C43.7,24.7,43.7,25.8,43,26.6z"/>
</g>
</svg>
