<?xml version="1.0" encoding="utf-8"?>
<!-- Generator: Adobe Illustrator 21.0.0, SVG Export Plug-In . SVG Version: 6.00 Build 0)  -->
<svg version="1.1" xmlns="http://www.w3.org/2000/svg" xmlns:xlink="http://www.w3.org/1999/xlink" x="0px" y="0px"
	 viewBox="0 0 61.7 67" style="enable-background:new 0 0 61.7 67;" xml:space="preserve">
<style type="text/css">
	.st0{fill:#FFFFFF;}
	.st1{fill:none;stroke:#231F20;stroke-miterlimit:10;}
	.st2{fill:#231F20;}
	.st3{fill:none;stroke:#231F20;stroke-width:0.8864;stroke-miterlimit:10;}
	.st4{fill:none;stroke:#000000;stroke-width:3;stroke-miterlimit:10;}
	.st5{fill:#77BCE2;}
	.st6{fill:none;stroke:#77BCE2;stroke-width:1.7711;stroke-miterlimit:10;}
	.st7{fill:none;stroke:#77BCE2;stroke-width:1.9592;stroke-linecap:round;stroke-linejoin:round;stroke-miterlimit:10;}
	.st8{fill:#FFFFFF;stroke:#77BCE2;stroke-width:1.9592;stroke-linecap:round;stroke-linejoin:round;stroke-miterlimit:10;}
	.st9{fill:none;stroke:#77BCE2;stroke-width:2;stroke-linecap:round;stroke-linejoin:round;stroke-miterlimit:10;}
</style>
<g id="Layer_2">
</g>
<g id="Layer_1">
	<g>
		<path class="st5" d="M52.4,38.9c-2,0-3.9,0.7-5.5,1.9L29.5,30.7l7.2-4.2c1.6,1.3,3.6,2,5.7,2c0.3,0,0.6,0,0.9,0c0.1,0,0.2,0,0.3,0
			c0.2,0,0.4,0,0.5-0.1c0.1,0,0.3-0.1,0.4-0.1c0.2,0,0.3-0.1,0.5-0.1c0.1,0,0.3-0.1,0.4-0.1c0.1,0,0.3-0.1,0.4-0.2
			c0.1-0.1,0.2-0.1,0.4-0.2c0.1-0.1,0.3-0.1,0.4-0.2c0.1-0.1,0.2-0.1,0.3-0.2c0.1-0.1,0.3-0.2,0.4-0.3c0.1-0.1,0.2-0.1,0.3-0.2
			c0.1-0.1,0.3-0.2,0.4-0.3c0.1-0.1,0.2-0.1,0.3-0.2c0,0,0.1-0.1,0.1-0.1c0,0,0.1-0.1,0.3-0.3c0.1-0.1,0.2-0.2,0.3-0.3
			c2.2-2.1,10.1-10.1,10.2-10.2c1.6-1.7,2.4-3.9,2.4-6.3c0-5.1-4.2-9.3-9.3-9.3c-2.6,0-4.9,1-6.7,2.9c-0.9,1-4.9,4.9-7.5,7.5
			c-1.2,1.2-1.9,1.9-2.2,2.2c-0.1,0.1-0.1,0.1-0.2,0.2c-0.1,0.1-0.1,0.1-0.1,0.1c0,0-0.1,0.1-0.1,0.1c-0.2,0.2-0.3,0.4-0.5,0.5
			c0,0.1-0.1,0.1-0.1,0.2c-0.2,0.2-0.3,0.4-0.4,0.7c0,0,0,0.1-0.1,0.1c-0.1,0.3-0.3,0.5-0.4,0.8c0,0,0,0,0,0.1
			c-0.1,0.3-0.3,0.6-0.4,0.9l-8.6,5c-1.6-1.3-3.7-2-5.7-2c-2.5,0-4.8,1-6.5,2.7L12,22.8c-4.3,4.2-7,7-8.6,8.7
			c-0.6,0.5-1.1,1-1.6,1.7c-0.1,0.1-0.1,0.1-0.1,0.2c0,0,0,0,0,0.1c-0.2,0.3-0.4,0.7-0.6,1c0,0.1-0.1,0.2-0.1,0.3
			c-0.2,0.3-0.3,0.7-0.4,1c0,0,0,0.1,0,0.1c-0.1,0.4-0.2,0.8-0.3,1.2c0,0.1,0,0.2,0,0.3C0,37.8,0,38.2,0,38.6c0,0,0,0,0,0
			c0,0,0,0,0,0s0,0,0,0c0,4.8,3.7,8.7,8.3,9.2c0.3,0,0.6,0,0.9,0c2.1,0,4.1-0.7,5.7-2l18.5,10.8c-0.1,0.4-0.1,0.9-0.1,1.3
			c0,5,4,9,9,9c0.3,0,0.6,0,0.8,0c0.1,0,0.2,0,0.3,0c0.2,0,0.3,0,0.5-0.1c0.1,0,0.3-0.1,0.4-0.1c0.1,0,0.3-0.1,0.4-0.1
			c0.1,0,0.3-0.1,0.4-0.1c0.1,0,0.3-0.1,0.4-0.2c0.1,0,0.2-0.1,0.3-0.1c0.2-0.1,0.3-0.2,0.5-0.2c0.1,0,0.1-0.1,0.2-0.1
			c0.5-0.3,0.9-0.6,1.3-0.9c1.2-1,4.7-4.6,7.5-7.4c1.4-1.4,2.5-2.6,3-3c1.8-1.7,2.8-4,2.8-6.5C61.4,43,57.4,38.9,52.4,38.9z
			 M45.4,42.2l-8.6,8.6L18.4,40c0.1-0.5,0.1-1,0.1-1.4c0-0.5,0-0.9-0.1-1.4l9.2-5.3L45.4,42.2z M47.1,4.2C48.5,2.8,50.4,2,52.4,2
			c4,0,7.3,3.3,7.3,7.3c0,1.8-0.7,3.6-1.9,4.9c-0.2,0.3-3.4,3.4-6.2,6.2c0-0.4,0.1-0.8,0.1-1.1c0-5.1-4.2-9.3-9.3-9.3
			c-0.4,0-0.7,0-1.1,0.1C43.7,7.7,46.4,5,47.1,4.2z M33.3,20.7l-12.3,7.2l4.6-4.6l7.7-4.5c0,0.1,0,0.3,0,0.4
			C33.1,19.7,33.2,20.2,33.3,20.7z M13.3,24.2l0.8-0.8c1.4-1.4,3.2-2.1,5.2-2.1c1.5,0,2.9,0.5,4.2,1.3l-8.6,8.6
			c-1.6-1.2-3.6-1.9-5.6-1.9c-0.4,0-0.8,0-1.1,0.1C9.6,28,11.3,26.2,13.3,24.2z M35.3,57.9c0-0.5,0.1-1,0.2-1.6
			c0.1-0.4-0.1-0.9-0.5-1.1L15.4,43.8c-0.2-0.1-0.3-0.1-0.5-0.1c-0.2,0-0.5,0.1-0.7,0.3c-1.4,1.3-3.1,2-5,2c-0.8,0-1.5-0.1-2.2-0.3
			c-3-0.9-5.1-3.7-5.1-7c0,0,0,0,0,0c0-0.3,0-0.7,0.1-1c0-0.1,0-0.2,0-0.3c0.1-0.3,0.1-0.6,0.2-0.9c0,0,0-0.1,0-0.1
			c0.1-0.3,0.2-0.6,0.3-0.8c0-0.1,0.1-0.2,0.1-0.2c0.1-0.3,0.3-0.6,0.5-0.8c0,0,0.1-0.1,0.1-0.1c0.2-0.2,0.6-0.7,1.3-1.4
			c1.3-1,2.9-1.6,4.6-1.6c1.8,0,3.6,0.7,5,2c0.1,0.1,0.2,0.1,0.3,0.2c0,0,0.1,0,0.1,0c0.1,0,0.2,0,0.2,0c0,0,0,0,0,0
			c0,0,0.1,0,0.1,0c0.1,0,0.1,0,0.2,0c0,0,0.1,0,0.1,0c0,0,0.1,0,0.1,0L34.9,22c0.4-0.2,0.6-0.7,0.5-1.1c-0.1-0.6-0.2-1.2-0.2-1.7
			c0-0.7,0.1-1.4,0.3-2c0,0,0,0,0,0c0.2-0.8,0.6-1.6,1.1-2.3c0,0,0,0,0-0.1c0.1-0.2,0.3-0.4,0.5-0.6c0,0,0.1-0.1,0.1-0.1
			c0.1-0.1,0.1-0.1,0.2-0.2c1.3-1.3,3.1-2,5-2c4,0,7.3,3.3,7.3,7.3c0,1.9-0.8,3.7-2,5c-0.1,0.1-0.2,0.2-0.3,0.3
			c-0.1,0.1-0.2,0.2-0.3,0.2C47,24.9,47,25,46.9,25c-0.1,0.1-0.2,0.2-0.3,0.2c-0.1,0.1-0.2,0.1-0.3,0.2c-0.1,0.1-0.2,0.1-0.3,0.2
			c-0.1,0.1-0.2,0.1-0.3,0.2c-0.1,0.1-0.2,0.1-0.3,0.2c-0.1,0-0.2,0.1-0.3,0.1c-0.1,0-0.2,0.1-0.3,0.1c-0.1,0-0.2,0.1-0.3,0.1
			c-0.1,0-0.2,0.1-0.3,0.1c-0.1,0-0.2,0.1-0.3,0.1c-0.1,0-0.3,0-0.4,0.1c-0.1,0-0.2,0-0.3,0c-0.2,0-0.5,0-0.7,0c-1.8,0-3.6-0.7-5-2
			c-0.2-0.1-0.4-0.2-0.6-0.3c-0.2,0-0.4,0-0.6,0.1l-9.2,5.4c0,0,0,0,0,0l-10.3,6c-0.4,0.2-0.6,0.7-0.5,1.1c0.1,0.6,0.2,1.2,0.2,1.7
			c0,0.5-0.1,1.1-0.2,1.7c-0.1,0.4,0.1,0.9,0.5,1.1l19.7,11.5c0,0,0.1,0,0.1,0c0,0,0.1,0,0.1,0c0.1,0,0.1,0,0.2,0c0,0,0,0,0.1,0
			c0,0,0,0,0,0c0.1,0,0.2,0,0.3-0.1c0,0,0,0,0.1,0c0.1,0,0.2-0.1,0.3-0.2c1.3-1.2,3-1.9,4.8-1.9c3.9,0,7.1,3.2,7.1,7.1
			c0,2.3-1.1,4.3-2.7,5.6c-0.2,0.2-0.5,0.4-0.7,0.5c-0.1,0-0.1,0.1-0.2,0.1c-0.3,0.2-0.6,0.3-0.9,0.4c-0.1,0-0.2,0.1-0.3,0.1
			c-0.3,0.1-0.6,0.2-0.9,0.2c-0.1,0-0.2,0-0.2,0C43.1,65,42.8,65,42.4,65C38.5,65,35.3,61.8,35.3,57.9z M57.3,53.1
			c-0.5,0.5-1.6,1.6-3,3.1c-0.9,0.9-1.9,1.9-2.9,2.9c0-0.4,0.1-0.7,0.1-1.1c0-5-4-9-9-9c-0.3,0-0.7,0-1,0.1l6.2-6.2
			c1.3-1.2,3-1.9,4.8-1.9c3.9,0,7.1,3.2,7.1,7.1C59.5,49.9,58.7,51.7,57.3,53.1z"/>
		<circle class="st5" cx="9.3" cy="38.6" r="5.3"/>
		<circle class="st5" cx="42.4" cy="19.3" r="5.3"/>
		<circle class="st5" cx="42.4" cy="57.9" r="5.3"/>
	</g>
</g>
</svg>
