<?xml version="1.0" encoding="utf-8"?>
<!-- Generator: Adobe Illustrator 21.0.0, SVG Export Plug-In . SVG Version: 6.00 Build 0)  -->
<svg version="1.1" id="Layer_1" xmlns="http://www.w3.org/2000/svg" xmlns:xlink="http://www.w3.org/1999/xlink" x="0px" y="0px"
	 viewBox="0 0 66.4 70" style="enable-background:new 0 0 66.4 70;" xml:space="preserve">
<style type="text/css">
	.st0{fill:#FFFFFF;}
	.st1{fill:#FFD878;}
	.st2{fill:none;stroke:#231F20;stroke-miterlimit:10;}
	.st3{fill:#231F20;}
	.st4{fill:none;stroke:#000000;stroke-width:3;stroke-miterlimit:10;}
	.st5{clip-path:url(#SVGID_2_);}
	.st6{fill:none;stroke:#10465B;stroke-width:2.082;stroke-linecap:round;stroke-linejoin:round;stroke-miterlimit:10;}
	.st7{fill:#10465B;}
	.st8{fill:none;stroke:#10465B;stroke-width:1.2299;stroke-linecap:round;stroke-linejoin:round;stroke-miterlimit:10;}
</style>
<path class="st1" d="M56.2,48.1c-2.6,0-4.9,1-6.7,2.6L25.2,36.5c0.2-0.8,0.3-1.6,0.3-2.4c0-0.8-0.1-1.6-0.3-2.4l24.1-14
	c1.8,1.7,4.3,2.8,7,2.8c5.6,0,10.2-4.6,10.2-10.2S61.9,0,56.2,0S46,4.6,46,10.2c0,0.8,0.1,1.6,0.3,2.4l-24.1,14
	c-1.8-1.7-4.3-2.8-7-2.8C9.6,23.9,5,28.5,5,34.2s4.6,10.2,10.2,10.2c2.7,0,5.1-1.1,7-2.8l24.3,14.2c-0.2,0.7-0.3,1.5-0.3,2.2
	c0,5.5,4.5,10,10,10c5.5,0,10-4.5,10-10S61.7,48.1,56.2,48.1z"/>
<path class="st7" d="M30.7,27.6l-1.9,1.1l-4.3-4.3l1.9-1.1L30.7,27.6z M20.4,34.9c-0.1-0.4-0.1-0.8-0.2-1.1l1.3-0.8l-4.8-4.8
	c-1.5-1.2-3.2-2-5.2-2.2L20.4,34.9z M28.2,50l7.1,4.1L7.4,26.3c-0.7,0.2-1.4,0.5-2.1,0.9L28.2,50z M41.3,60.2c0,1.3,0.3,2.6,0.7,3.7
	l5.4,5.4c1.1,0.5,2.4,0.7,3.7,0.7L41.3,60.2z M0.3,33.9C0.1,34.6,0,35.4,0,36.2c0,0.1,0,0.3,0,0.4l9.8,9.8c0.1,0,0.3,0,0.4,0
	c0.8,0,1.6-0.1,2.3-0.3L0.3,33.9z M51.2,50.1c-0.3,0-0.6,0-0.9,0l10.8,10.8c0-0.3,0-0.6,0-0.9c0-0.8-0.1-1.6-0.3-2.3l-7.3-7.3
	C52.8,50.2,52,50.1,51.2,50.1z M24.2,31.4l1.9-1.1L21.8,26l-1.9,1.1L24.2,31.4z M2.8,29.1c-0.5,0.5-0.9,1.1-1.3,1.7l14.1,14.1
	c0.6-0.4,1.1-0.8,1.6-1.2l0.4,0.3L2.8,29.1z M35.7,17.9L33.9,19l4.3,4.3l1.9-1.1L35.7,17.9z M44.4,4.6c-0.5,0.5-1,1-1.4,1.5
	l14.3,14.3c0.6-0.4,1.1-0.9,1.5-1.4L44.4,4.6z M49.4,2.2c-0.8,0.1-1.5,0.4-2.3,0.7l13.5,13.5c0.3-0.7,0.5-1.5,0.7-2.3L49.4,2.2z
	 M41.5,9c-0.3,0.8-0.4,1.6-0.5,2.4l11,11c0.8-0.1,1.7-0.2,2.4-0.5L41.5,9z M54,2.4l7,7C60.1,6,57.4,3.4,54,2.4z M40.4,15.2l-1.9,1.1
	l4.3,4.3l1.4-0.8c0.7,0.6,1.4,1.2,2.3,1.6L40.4,15.2z M46.9,51.1c-0.6,0.3-1.3,0.7-1.8,1.1L59,66.2c0.4-0.6,0.8-1.2,1.1-1.8
	L46.9,51.1z M31.1,20.6l-1.9,1.1l4.3,4.3l1.9-1.1L31.1,20.6z M36.5,48.1L29.5,44l25.3,25.3c0.7-0.3,1.3-0.6,1.9-1L36.5,48.1z"/>
</svg>
