<?xml version="1.0" encoding="utf-8"?>
<!-- Generator: Adobe Illustrator 21.0.0, SVG Export Plug-In . SVG Version: 6.00 Build 0)  -->
<svg version="1.1" id="Layer_1" xmlns="http://www.w3.org/2000/svg" xmlns:xlink="http://www.w3.org/1999/xlink" x="0px" y="0px"
	 viewBox="0 0 43.5 41.8" style="enable-background:new 0 0 43.5 41.8;" xml:space="preserve">
<style type="text/css">
	.st0{fill:#FFFFFF;}
	.st1{fill:#FFD878;}
	.st2{fill:none;stroke:#231F20;stroke-miterlimit:10;}
	.st3{fill:#231F20;}
	.st4{fill:none;stroke:#000000;stroke-width:3;stroke-miterlimit:10;}
	.st5{clip-path:url(#SVGID_2_);}
	.st6{fill:none;stroke:#10465B;stroke-width:2.082;stroke-linecap:round;stroke-linejoin:round;stroke-miterlimit:10;}
	.st7{fill:#10465B;}
	.st8{fill:none;stroke:#10465B;stroke-width:1.2299;stroke-linecap:round;stroke-linejoin:round;stroke-miterlimit:10;}
</style>
<path class="st1" d="M19.9,23.6c-5.4-5.4-5.4-14.2,0-19.6s14.2-5.4,19.6,0s5.4,14.2,0,19.6S25.3,29,19.9,23.6z M37.1,6.5
	c-4.1-4.1-10.7-4.1-14.7,0s-4.1,10.7,0,14.7s10.7,4.1,14.7,0S41.1,10.5,37.1,6.5z M33.9,16.1l-2.3-2.3l2.3-2.3
	c0.5-0.5,0.5-1.4,0-1.9c-0.5-0.5-1.4-0.5-1.9,0l-2.3,2.3l-2.3-2.3c-0.5-0.5-1.4-0.5-1.9,0c-0.5,0.5-0.5,1.4,0,1.9l2.3,2.3l-2.3,2.3
	c-0.5,0.5-0.5,1.4,0,1.9c0.5,0.5,1.4,0.5,1.9,0l2.3-2.3L32,18c0.5,0.5,1.4,0.5,1.9,0C34.4,17.5,34.4,16.6,33.9,16.1z M19,27l2.2-2.2
	c-0.4-0.3-0.9-0.7-1.3-1.1s-0.8-0.8-1.1-1.3l-2.2,2.2c-0.8-0.1-1.6,0.2-2.2,0.8L3.5,36.1c-1.1,1.1-1.1,2.8,0,3.9
	c1.1,1.1,2.8,1.1,3.9,0l10.8-10.8C18.8,28.6,19.1,27.8,19,27z"/>
<path class="st7" d="M30.9,17.3L28.6,15l2.3-2.3c0.5-0.5,0.5-1.4,0-1.9c-0.5-0.5-1.4-0.5-1.9,0l-2.3,2.3l-2.3-2.3
	c-0.5-0.5-1.4-0.5-1.9,0c-0.5,0.5-0.5,1.4,0,1.9l2.3,2.3l-2.3,2.3c-0.5,0.5-0.5,1.4,0,1.9c0.5,0.5,1.4,0.5,1.9,0l2.3-2.3l2.3,2.3
	c0.5,0.5,1.4,0.5,1.9,0S31.4,17.8,30.9,17.3z"/>
<path class="st7" d="M22.9,28.3c-1-0.3-2-0.7-2.9-1.2l-5.6-5.7c-0.5-0.9-0.8-1.9-1.1-2.9L22.9,28.3z M11.1,26.7l-0.9,0.9l3.8,3.9
	l0.9-0.9L11.1,26.7z M16.8,27.3l-2.4-2.4l-0.9,0.9l2.4,2.5c0,0,0,0,0-0.1L16.8,27.3z M29.1,4.9c1,0.2,1.9,0.6,2.8,1.1l-4.7-4.8
	c-0.6,0-1.1,0-1.7,0L29.1,4.9z M36.9,12.9l3.6,3.7c0.1-0.6,0.1-1.1,0.1-1.7L35.8,10C36.3,10.9,36.7,11.9,36.9,12.9z M0.8,37.1
	l-0.2,0.2c-0.2,0.2-0.4,0.5-0.5,0.8l3.6,3.7c0.3-0.1,0.6-0.3,0.8-0.6L4.6,41L0.8,37.1z M8.5,29.3l-0.9,0.9l3.8,3.9l0.9-0.9L8.5,29.3
	z M24.1,5c0.5-0.1,1-0.2,1.5-0.3l-2.8-2.9c-0.4,0.1-0.9,0.3-1.3,0.5L24.1,5z M3.3,34.5l-0.9,0.9l3.8,3.9l0.9-0.9L3.3,34.5z
	 M5.9,31.9l-0.9,0.9l3.8,3.9l0.9-0.9L5.9,31.9z M18,9.3c0.2-0.3,0.5-0.7,0.8-1l-2.4-2.5c-0.3,0.3-0.5,0.6-0.8,1L18,9.3z M37,16.5
	c-0.1,0.5-0.2,1-0.3,1.5l2.6,2.7c0.2-0.4,0.3-0.8,0.5-1.3L37,16.5z M35.6,20.3c-0.2,0.4-0.4,0.7-0.7,1l2.4,2.5
	c0.3-0.3,0.5-0.7,0.7-1L35.6,20.3z M35.2,4.1c-1.1-0.9-2.4-1.6-3.7-2l8.3,8.6c-0.4-1.3-1.1-2.6-2-3.8L35.2,4.1z M33.2,23.1
	c-0.3,0.3-0.7,0.5-1,0.7l2.4,2.5c0.3-0.2,0.7-0.5,1-0.8L33.2,23.1z M25.1,25.3c-0.8-0.1-1.6-0.3-2.4-0.6l4.1,4.2
	c0.5,0,1.1,0,1.6-0.1L25.1,25.3z M29.9,24.9c-0.5,0.1-0.9,0.3-1.4,0.3l2.7,2.8c0.4-0.1,0.8-0.3,1.2-0.5L29.9,24.9z M16.5,13
	c0.1-0.5,0.2-0.9,0.4-1.4L14.3,9c-0.2,0.4-0.4,0.8-0.5,1.2L16.5,13z M17,18.8c-0.3-0.8-0.5-1.6-0.6-2.4L13,12.9
	c-0.1,0.5-0.1,1.1-0.1,1.6L17,18.8z M20.6,6.6c0.3-0.3,0.7-0.5,1.1-0.7l-2.5-2.5c-0.3,0.2-0.7,0.5-1,0.7L20.6,6.6z"/>
</svg>
