<?xml version="1.0" encoding="utf-8"?>
<!-- Generator: Adobe Illustrator 21.0.0, SVG Export Plug-In . SVG Version: 6.00 Build 0)  -->
<svg version="1.1" xmlns="http://www.w3.org/2000/svg" xmlns:xlink="http://www.w3.org/1999/xlink" x="0px" y="0px"
	 viewBox="0 0 11.1 27" style="enable-background:new 0 0 11.1 27;" xml:space="preserve">
<style type="text/css">
	.st0{fill:#FFFFFF;}
	.st1{fill:none;stroke:#231F20;stroke-miterlimit:10;}
	.st2{fill:#231F20;}
	.st3{fill:none;stroke:#231F20;stroke-width:0.8864;stroke-miterlimit:10;}
	.st4{fill:none;stroke:#000000;stroke-width:3;stroke-miterlimit:10;}
	.st5{fill:#77BCE2;}
	.st6{fill:none;stroke:#77BCE2;stroke-width:1.7711;stroke-miterlimit:10;}
	.st7{fill:none;stroke:#77BCE2;stroke-width:1.9592;stroke-linecap:round;stroke-linejoin:round;stroke-miterlimit:10;}
	.st8{fill:#FFFFFF;stroke:#77BCE2;stroke-width:1.9592;stroke-linecap:round;stroke-linejoin:round;stroke-miterlimit:10;}
	.st9{fill:none;stroke:#77BCE2;stroke-width:2;stroke-linecap:round;stroke-linejoin:round;stroke-miterlimit:10;}
</style>
<g id="Layer_2">
</g>
<g id="Layer_1">
	<path class="st5" d="M10.1,27H1.2c-0.6,0-1-0.4-1-1v-2.7c0-0.5,0.3-0.9,0.8-1L2.4,22v-8.8l-1.6-0.3c-0.5-0.1-0.8-0.5-0.8-1V9.2
		c0-0.6,0.4-1,1-1h7c0.6,0,1,0.4,1,1V22l1.4,0.3c0.5,0.1,0.8,0.5,0.8,1V26C11.1,26.6,10.7,27,10.1,27z M2.2,25h6.9v-0.9l-1.4-0.3
		c-0.5-0.1-0.8-0.5-0.8-1V10.2H2v0.9l1.6,0.3c0.5,0.1,0.8,0.5,0.8,1v10.4c0,0.5-0.3,0.9-0.8,1l-1.4,0.3V25z M5.7,7
		C3.8,7,2.2,5.4,2.2,3.5S3.8,0,5.7,0s3.5,1.6,3.5,3.5S7.6,7,5.7,7z M5.7,2C4.9,2,4.2,2.7,4.2,3.5S4.9,5,5.7,5s1.5-0.7,1.5-1.5
		S6.5,2,5.7,2z"/>
</g>
</svg>
