<?xml version="1.0" encoding="utf-8"?>
<!-- Generator: Adobe Illustrator 21.0.0, SVG Export Plug-In . SVG Version: 6.00 Build 0)  -->
<svg version="1.1" id="Layer_1" xmlns="http://www.w3.org/2000/svg" xmlns:xlink="http://www.w3.org/1999/xlink" x="0px" y="0px"
	 viewBox="0 0 47.3 42" style="enable-background:new 0 0 47.3 42;" xml:space="preserve">
<style type="text/css">
	.st0{fill:#FFFFFF;}
	.st1{fill:#FFD878;}
	.st2{fill:none;stroke:#231F20;stroke-miterlimit:10;}
	.st3{fill:#231F20;}
	.st4{fill:none;stroke:#000000;stroke-width:3;stroke-miterlimit:10;}
	.st5{clip-path:url(#SVGID_2_);}
	.st6{fill:none;stroke:#10465B;stroke-width:2.082;stroke-linecap:round;stroke-linejoin:round;stroke-miterlimit:10;}
	.st7{fill:#10465B;}
	.st8{fill:none;stroke:#10465B;stroke-width:1.2299;stroke-linecap:round;stroke-linejoin:round;stroke-miterlimit:10;}
</style>
<polygon class="st1" points="25.2,0 3,21.4 15.8,21.4 15.8,40.8 34.6,40.8 34.6,21.4 47.3,21.4 "/>
<path class="st7" d="M24.5,42h-1.7l-10-10.2V30L24.5,42z M12.8,40.5V42h1.5L12.8,40.5z M12.8,35.2V37l4.9,5h1.7L12.8,35.2z
	 M3.8,22.6h1.7l-2.7-2.8L2,20.7L3.8,22.6z M0.2,22.4L0,22.6h0.4L0.2,22.4z M5.5,17.3l-0.9,0.9L9,22.6h1.7L5.5,17.3z M13.4,9.6
	l-0.9,0.9l19,19.5v-1.8L13.4,9.6z M16,7.1L15.2,8l16.4,16.8V23L16,7.1z M18.7,4.6l-0.9,0.9l16.8,17.2h1.7L18.7,4.6z M21.3,2
	l-0.9,0.9l19.3,19.7h1.7L21.3,2z M8.1,14.7l-0.9,0.9l24.3,24.9v-1.8L8.1,14.7z M12.8,24.7v1.8L27.9,42h1.7L12.8,24.7z M10.8,12.2
	l-0.9,0.9l21.7,22.2v-1.8L10.8,12.2z"/>
</svg>
