<svg xmlns="http://www.w3.org/2000/svg" viewBox="0 0 18 18"><defs><style>.cls-2{fill:none;stroke-miterlimit:10;stroke-width:0.8px;}</style></defs><path d="M9.64,1.85A7.14,7.14,0,1,0,16.78,9,7.15,7.15,0,0,0,9.64,1.85Zm-1.24,8a2,2,0,0,0,.23.66,1.28,1.28,0,0,0,.44.46,1.32,1.32,0,0,0,.71.17,1.6,1.6,0,0,0,.5-.08,1.33,1.33,0,0,0,.42-.22,1,1,0,0,0,.28-.34.87.87,0,0,0,.09-.44h1.67a2.06,2.06,0,0,1-.22,1,2.46,2.46,0,0,1-.64.79,3.05,3.05,0,0,1-.94.52,3.36,3.36,0,0,1-1.13.19,3.43,3.43,0,0,1-1.41-.27,2.84,2.84,0,0,1-1-.74,3.21,3.21,0,0,1-.61-1.11,4.37,4.37,0,0,1-.21-1.36V8.9a4.43,4.43,0,0,1,.2-1.36,3.14,3.14,0,0,1,.61-1.11,2.91,2.91,0,0,1,1-.75,3.35,3.35,0,0,1,1.4-.27A3.52,3.52,0,0,1,11,5.6a2.79,2.79,0,0,1,.94.54,2.4,2.4,0,0,1,.61.84,2.59,2.59,0,0,1,.2,1.11H11A1.16,1.16,0,0,0,11,7.6a1.09,1.09,0,0,0-.26-.4,1.3,1.3,0,0,0-.42-.26,1.39,1.39,0,0,0-.53-.1,1.21,1.21,0,0,0-1.13.63,2.07,2.07,0,0,0-.23.66,4.29,4.29,0,0,0-.07.77v.19A4.6,4.6,0,0,0,8.4,9.87Z"/><path class="cls-2" d="M9.64,17.41a8.42,8.42,0,0,0,7-3.71M12.68,1.14a8.37,8.37,0,0,0-3-.57h0A8.43,8.43,0,0,0,1.22,9"/></svg>
