<svg xmlns="http://www.w3.org/2000/svg" viewBox="0 0 27 27"><defs><style>.cls-2{fill:none;stroke-miterlimit:10;stroke-width:1.5px;}</style></defs><path d="M18.83,9H16.92V7.08a.82.82,0,1,0-1.63,0V9H13.37a.82.82,0,0,0,0,1.63h1.91v1.91a.82.82,0,1,0,1.63,0V10.62h1.91a.82.82,0,1,0,0-1.63Zm3-5A8.15,8.15,0,0,0,9.66,14.8L8.27,16.19a1.62,1.62,0,0,0-1.33.46L.51,23.09A1.63,1.63,0,1,0,2.81,25.4L9.25,19a1.62,1.62,0,0,0,.46-1.33l1.4-1.39A8.15,8.15,0,0,0,21.87,4ZM20.65,14.35a6.44,6.44,0,0,1-9.1,0h0a6.43,6.43,0,1,1,9.1,0Z"/><path class="cls-2" d="M9.08,2.78A9.94,9.94,0,0,0,7.35,14.49m4.07,4.07A9.93,9.93,0,0,0,26,9.8a9.86,9.86,0,0,0-2.9-7"/></svg>
