<svg xmlns="http://www.w3.org/2000/svg" viewBox="0 0 12.52 18"><defs><style>.cls-2{fill:none;stroke-miterlimit:10;stroke-width:0.8px;}</style></defs><path d="M12.11,17.13a9.4,9.4,0,0,1-1.84.68A7.77,7.77,0,0,1,8.49,18a6.12,6.12,0,0,1-1.92-.28,4.15,4.15,0,0,1-1.42-.79,2.88,2.88,0,0,1-.82-1.09,4.8,4.8,0,0,1-.23-1.68V8.54H2.35V6.27a4.6,4.6,0,0,0,1.6-.88A4.39,4.39,0,0,0,5,4a6.3,6.3,0,0,0,.55-2H7.82V6h3.76V8.54H7.82v4.11A6.61,6.61,0,0,0,8,14.44a1.21,1.21,0,0,0,.54.63,2.28,2.28,0,0,0,1.2.32,4.29,4.29,0,0,0,2.39-.79Z"/><path class="cls-2" d="M11.35,13.45A2.93,2.93,0,0,1,9.72,14a.93.93,0,0,1-.46-.1,9.4,9.4,0,0,1-.06-1.26V9.92M5.57.59H4.35L4.2,1.8a5,5,0,0,1-.42,1.59A3,3,0,0,1,3,4.34,3.22,3.22,0,0,1,1.92,5L1,5.27V8.54"/></svg>
