<svg xmlns="http://www.w3.org/2000/svg" viewBox="0 0 18 18"><defs><style>.cls-2{fill:none;stroke-miterlimit:10;stroke-width:0.8px;}</style></defs><circle cx="9.2" cy="8.92" r="2.4"/><path class="cls-1" d="M16.35,6A5.28,5.28,0,0,0,16,4.21a3.68,3.68,0,0,0-2.1-2.1,5.28,5.28,0,0,0-1.75-.33c-.77,0-1,0-3,0s-2.2,0-3,0a5.28,5.28,0,0,0-1.75.33,3.68,3.68,0,0,0-2.1,2.1A5.28,5.28,0,0,0,2.05,6c0,.77,0,1,0,3s0,2.2,0,3a5.28,5.28,0,0,0,.33,1.75,3.68,3.68,0,0,0,2.1,2.1,5.28,5.28,0,0,0,1.75.33c.77,0,1,0,3,0s2.2,0,3,0a5.28,5.28,0,0,0,1.75-.33,3.68,3.68,0,0,0,2.1-2.1,5.28,5.28,0,0,0,.33-1.75c0-.77,0-1,0-3S16.39,6.72,16.35,6ZM9.2,12.61A3.69,3.69,0,1,1,12.9,8.92,3.69,3.69,0,0,1,9.2,12.61ZM13,5.94a.86.86,0,1,1,.86-.86A.86.86,0,0,1,13,5.94Z"/><path class="cls-2" d="M6.2,17.12c.78,0,1,0,3,0s2.23,0,3,0a6.32,6.32,0,0,0,2.08-.4A4.75,4.75,0,0,0,17,14M12.2.71c-.78,0-1,0-3,0h0c-2,0-2.22,0-3,0a6.32,6.32,0,0,0-2.08.4A4.73,4.73,0,0,0,1.4,3.83,6.32,6.32,0,0,0,1,5.92"/></svg>
