<svg xmlns="http://www.w3.org/2000/svg" viewBox="0 0 21.23 18"><defs><style>.cls-2{fill:none;stroke:#d15127;stroke-linejoin:round;stroke-width:0.8px;}</style></defs><path d="M18.57,5.43c0,.15,0,.31,0,.46a10.2,10.2,0,0,1-15.71,8.6,7.28,7.28,0,0,0,.86.05A7.2,7.2,0,0,0,8.18,13a3.59,3.59,0,0,1-3.35-2.49,3.67,3.67,0,0,0,.67.06,3.6,3.6,0,0,0,.95-.12A3.59,3.59,0,0,1,3.57,6.94v0a3.58,3.58,0,0,0,1.63.45A3.59,3.59,0,0,1,4.09,2.55,10.18,10.18,0,0,0,11.48,6.3a3.62,3.62,0,0,1-.09-.82A3.59,3.59,0,0,1,17.6,3a7.22,7.22,0,0,0,2.28-.87,3.6,3.6,0,0,1-1.58,2,7.18,7.18,0,0,0,2.06-.56A7.24,7.24,0,0,1,18.57,5.43Z"/><path class="cls-2" d="M2.21,15.52a11.39,11.39,0,0,0,6.16,1.81,11.14,11.14,0,0,0,8.5-3.74m1.07-11.9A4.81,4.81,0,0,0,10.2,4.91,9,9,0,0,1,5,1.78"/></svg>
