<svg xmlns="http://www.w3.org/2000/svg" viewBox="0 0 27 27"><defs><style>.cls-2{fill:none;stroke-miterlimit:10;stroke-width:1.3px;}</style></defs><circle cx="14.11" cy="13.5" r="3.67"/><path class="cls-1" d="M25.05,9a8.08,8.08,0,0,0-.51-2.67,5.63,5.63,0,0,0-3.22-3.22,8.08,8.08,0,0,0-2.67-.51c-1.17-.05-1.55-.07-4.54-.07s-3.37,0-4.54.07a8.08,8.08,0,0,0-2.67.51A5.63,5.63,0,0,0,3.68,6.29,8.08,8.08,0,0,0,3.17,9c-.05,1.17-.07,1.55-.07,4.54s0,3.37.07,4.54a8.08,8.08,0,0,0,.51,2.67A5.63,5.63,0,0,0,6.9,23.93a8.08,8.08,0,0,0,2.67.51c1.17.05,1.55.07,4.54.07s3.37,0,4.54-.07a8.08,8.08,0,0,0,2.67-.51,5.63,5.63,0,0,0,3.22-3.22A8.08,8.08,0,0,0,25.05,18c.05-1.17.07-1.55.07-4.54S25.11,10.13,25.05,9ZM14.11,19.15a5.65,5.65,0,1,1,5.65-5.65A5.65,5.65,0,0,1,14.11,19.15ZM20,8.94a1.32,1.32,0,1,1,1.32-1.32A1.32,1.32,0,0,1,20,8.94Z"/><path class="cls-2" d="M9.52,26.06c1.19.05,1.6.07,4.59.07s3.41,0,4.59-.07a9.67,9.67,0,0,0,3.19-.61A7.27,7.27,0,0,0,26,21.29M18.7.94C17.51.89,17.1.88,14.11.88h0c-3,0-3.4,0-4.59.07a9.67,9.67,0,0,0-3.19.61A7.24,7.24,0,0,0,2.17,5.72a9.67,9.67,0,0,0-.61,3.19"/></svg>
