<svg xmlns="http://www.w3.org/2000/svg" viewBox="0 0 27 27"><defs><style>.cls-2{fill:none;stroke-miterlimit:10;stroke-width:1.3px;}</style></defs><path d="M20.22,10H14.74a.82.82,0,0,0,0,1.64h5.48a.82.82,0,1,0,0-1.64Zm3.06-5A8.2,8.2,0,0,0,11,15.86l-1.4,1.4a1.63,1.63,0,0,0-1.33.46L1.8,24.2a1.64,1.64,0,0,0,2.32,2.32L10.59,20a1.63,1.63,0,0,0,.46-1.33l1.4-1.4A8.2,8.2,0,0,0,23.28,5ZM22.06,15.41a6.48,6.48,0,0,1-9.15,0h0a6.47,6.47,0,1,1,9.15,0Z"/><path class="cls-2" d="M24.55,3.77A9.92,9.92,0,0,0,17.48.85h0a10,10,0,0,0-8.81,14.7m4.1,4.1A10,10,0,0,0,24.55,17.9"/></svg>
