<svg xmlns="http://www.w3.org/2000/svg" viewBox="0 0 15.05 18"><defs><style>.cls-2{fill:none;stroke-miterlimit:10;stroke-width:1px;}</style></defs><path d="M13.55,16.39H10.16a.54.54,0,0,1-.54-.54V2.38a.54.54,0,0,1,.54-.54h3.39a.54.54,0,0,1,.54.54V15.85A.54.54,0,0,1,13.55,16.39Zm-7.6,0H2.56A.54.54,0,0,1,2,15.85V2.38a.54.54,0,0,1,.54-.54H6a.54.54,0,0,1,.54.54V15.85A.54.54,0,0,1,6,16.39Z"/><path class="cls-2" d="M8.56,2.38V15.85a1.61,1.61,0,0,0,1.61,1.61h3.39M6,.77H2.56A1.61,1.61,0,0,0,1,2.38v11"/></svg>
