<svg xmlns="http://www.w3.org/2000/svg" viewBox="0 0 16.89 16.89"><defs><style>.cls-2{fill:none;stroke-miterlimit:10;stroke-width:0.8px;}</style></defs><path d="M11.82,5.95H10.64V4.77a.5.5,0,1,0-1,0V5.95H8.46a.5.5,0,0,0,0,1H9.64V8.13a.5.5,0,1,0,1,0V7h1.18a.5.5,0,0,0,0-1Zm1.87-3A5,5,0,0,0,6.18,9.52l-.86.86a1,1,0,0,0-.82.28l-4,4A1,1,0,1,0,2,16l4-4a1,1,0,0,0,.28-.82l.86-.85A5,5,0,0,0,13.69,2.9Zm-.75,6.35a4,4,0,0,1-5.6,0h0a4,4,0,1,1,5.6,0Z"/><path class="cls-2" d="M5.82,2.13a6.12,6.12,0,0,0-1.07,7.2m2.5,2.5a6.11,6.11,0,0,0,9-5.39,6.07,6.07,0,0,0-1.79-4.32"/></svg>
