<svg xmlns="http://www.w3.org/2000/svg" viewBox="0 0 15.13 18"><defs><style>.cls-2,.cls-3{fill:none;stroke-width:1px;}.cls-2{stroke-linejoin:round;}.cls-3{stroke-miterlimit:10;}</style></defs><title>famsf-</title><path class="cls-1" d="M9.37,4.47a4.22,4.22,0,0,0-7,3.39l.34,6a2.55,2.55,0,0,0,2.54,2.4h.15A2.53,2.53,0,0,0,7.3,15.14l2.89-5.35a4.22,4.22,0,0,0-.81-5.32Zm-.56,4A.51.51,0,0,1,8.3,8,1.74,1.74,0,0,0,4.82,8c0,1.46.36,1.74,1,1.74.16,0,.9.07,1.1.67s-.18,1.12-1.15,1.89a.51.51,0,0,1-.32.11.51.51,0,0,1-.32-.91,3.49,3.49,0,0,0,.75-.73H5.78c-2,0-2-2.08-2-2.76A2.76,2.76,0,0,1,9.32,8,.51.51,0,0,1,8.81,8.5Z"/><path class="cls-2" d="M12,7.31A5.5,5.5,0,0,0,6.57,2.12H6.25m-5,8.76.17,3a3.82,3.82,0,0,0,3.81,3.6h.22"/><path class="cls-3" d="M5.84.59a7.62,7.62,0,0,1,8,7.17"/></svg>
