<svg xmlns="http://www.w3.org/2000/svg" viewBox="0 0 16.89 16.89"><defs><style>.cls-2{fill:none;stroke-miterlimit:10;stroke-width:0.8px;}</style></defs><path class="cls-1" d="M12.63,6.19H9.26a.5.5,0,0,0,0,1h3.38a.5.5,0,1,0,0-1Zm1.88-3.06A5,5,0,0,0,7,9.79l-.86.86a1,1,0,0,0-.82.29l-4,4a1,1,0,1,0,1.43,1.43l4-4A1,1,0,0,0,7,11.55l.86-.86a5,5,0,0,0,6.66-7.56Zm-.75,6.39a4,4,0,0,1-5.63,0h0a4,4,0,1,1,5.63,0Z"/><path class="cls-2" d="M15.29,2.35A6.11,6.11,0,0,0,10.95.55h0a6.15,6.15,0,0,0-5.42,9M8,12.12A6.15,6.15,0,0,0,15.29,11"/></svg>
