<svg xmlns="http://www.w3.org/2000/svg" viewBox="0 0 18 27"><defs><style>.cls-2{fill:none;stroke-miterlimit:10;stroke-width:1.3px;}</style></defs><path d="M17.66,25.69a14,14,0,0,1-2.74,1,11.61,11.61,0,0,1-2.66.29,9.14,9.14,0,0,1-2.87-.41,6.19,6.19,0,0,1-2.13-1.18A4.3,4.3,0,0,1,6,23.77a7.17,7.17,0,0,1-.34-2.51v-8.4H3.09V9.48A6.87,6.87,0,0,0,5.48,8.17a6.56,6.56,0,0,0,1.6-2.06A9.4,9.4,0,0,0,7.9,3.06h3.36V9.11h5.61v3.76H11.26V19a9.86,9.86,0,0,0,.22,2.67,1.81,1.81,0,0,0,.81.94,3.4,3.4,0,0,0,1.8.48,6.41,6.41,0,0,0,3.57-1.18Z"/><path class="cls-2" d="M16.52,20.21a4.37,4.37,0,0,1-2.43.84,1.39,1.39,0,0,1-.68-.15A14,14,0,0,1,13.33,19V14.93M7.9,1H6.08L5.86,2.81a7.45,7.45,0,0,1-.62,2.38,4.48,4.48,0,0,1-1.1,1.42,4.8,4.8,0,0,1-1.69.92L1,8v4.88"/></svg>
