<svg xmlns="http://www.w3.org/2000/svg" viewBox="0 0 32.3 27"><defs><style>.cls-2{fill:none;stroke-linejoin:round;stroke-width:1.5px;}</style></defs><path d="M27.34,8.18c0,.23,0,.46,0,.69A15.22,15.22,0,0,1,3.92,21.69a10.86,10.86,0,0,0,1.28.08,10.74,10.74,0,0,0,6.65-2.29,5.36,5.36,0,0,1-5-3.72,5.47,5.47,0,0,0,1,.09,5.37,5.37,0,0,0,1.41-.19A5.36,5.36,0,0,1,5,10.42v-.07A5.34,5.34,0,0,0,7.4,11,5.36,5.36,0,0,1,5.74,3.88a15.19,15.19,0,0,0,11,5.59,5.41,5.41,0,0,1-.14-1.22,5.36,5.36,0,0,1,9.26-3.66,10.78,10.78,0,0,0,3.4-1.3,5.37,5.37,0,0,1-2.35,3A10.71,10.71,0,0,0,30,5.41,10.81,10.81,0,0,1,27.34,8.18Z"/><path class="cls-2" d="M2.94,23.23a17,17,0,0,0,9.19,2.7A16.61,16.61,0,0,0,24.8,20.34M26.39,2.58A7.18,7.18,0,0,0,14.86,7.39,13.43,13.43,0,0,1,7.15,2.72"/></svg>
