<svg xmlns="http://www.w3.org/2000/svg" viewBox="0 0 20.23 25"><defs><style>.cls-2,.cls-3{fill:none;stroke-width:1.5px;}.cls-2{stroke-linejoin:round;}.cls-3{stroke-miterlimit:10;}</style></defs><path d="M12.46,6.57A5.76,5.76,0,0,0,2.86,11.2l.47,8.14a3.48,3.48,0,0,0,3.46,3.27H7a3.45,3.45,0,0,0,2.63-1.47l3.94-7.3a5.76,5.76,0,0,0-1.11-7.26Zm-.76,5.51a.7.7,0,0,1-.7-.7,2.38,2.38,0,1,0-4.75,0c0,2,.49,2.38,1.34,2.38.21,0,1.23.09,1.5.92s-.25,1.53-1.57,2.57a.7.7,0,0,1-.43.15.7.7,0,0,1-.43-1.24,4.76,4.76,0,0,0,1-1l-.12,0c-2.7,0-2.7-2.84-2.7-3.77a3.77,3.77,0,1,1,7.54,0A.7.7,0,0,1,11.69,12.07Z"/><path class="cls-2" d="M16.11,10.44A7.5,7.5,0,0,0,8.63,3.37H8.19m-6.83,12,.23,4.1a5.21,5.21,0,0,0,5.2,4.91h.3"/><path class="cls-3" d="M7.63,1.27a10.4,10.4,0,0,1,11,9.79"/></svg>
