<svg xmlns="http://www.w3.org/2000/svg" viewBox="0 0 19.38 18"><defs><style>.cls-2{fill:none;stroke:#d15127;stroke-miterlimit:10;stroke-width:0.8px;}</style></defs><path d="M9.69,1.73a.54.54,0,0,1,.38.15L17.41,9a.54.54,0,0,1-.38.93H13.35V15.8a.54.54,0,0,1-.54.54H6.57A.54.54,0,0,1,6,15.8V9.91H2.34A.54.54,0,0,1,2,9l7.34-7.1A.54.54,0,0,1,9.69,1.73Z"/><path class="cls-2" d="M5,12.93V15.8a1.61,1.61,0,0,0,1.61,1.61H12.8a1.61,1.61,0,0,0,1.61-1.61m2.2-9.07L10.81,1.11a1.61,1.61,0,0,0-2.24,0L6.8,2.83"/></svg>
