<svg xmlns="http://www.w3.org/2000/svg" viewBox="0 0 20 20"><defs><style>.cls-2{fill:none;stroke-miterlimit:10;stroke-width:1px;}</style></defs><path d="M16.24,2H3.76A1.79,1.79,0,0,0,2,3.76V16.24A1.79,1.79,0,0,0,3.76,18H10V11.78H8.22V9.58H10V7.75a3,3,0,0,1,3.36-3.28H15V6.79H13.9a1.18,1.18,0,0,0-1.22,1.28V9.58H15l-.51,2.2H12.67V18h3.56A1.79,1.79,0,0,0,18,16.24V3.76A1.79,1.79,0,0,0,16.24,2Z"/><path class="cls-2" d="M16.24.71H3.76A3.06,3.06,0,0,0,.71,3.76v3m12,12.55h3.56a3.06,3.06,0,0,0,3.05-3.05V9.11"/></svg>
