<svg xmlns="http://www.w3.org/2000/svg" viewBox="0 0 46.38 27"><defs><style>.cls-2{fill:none;stroke-miterlimit:10;stroke-width:1.5px;}</style></defs><path d="M15.61,10.49a8.74,8.74,0,1,0,10.1-8.63q-.85-.08-1.73-.1A8.74,8.74,0,0,0,15.61,10.49Z"/><path d="M31.45,3.07a10.28,10.28,0,1,1-13.3-.76A21.36,21.36,0,0,0,3.41,13c6.67,12.15,20,11.3,20,11.3,8.94,0,16.62-4.65,20-11.3A20.85,20.85,0,0,0,31.45,3.07Z"/><path class="cls-2" d="M24.09-1.42m21,13.62a22.84,22.84,0,0,0-13-10.89M4.12,8.59A20,20,0,0,0,1.76,12.2l-.44.87.47.86C8.2,25.62,20.45,26.21,22.85,26.21h.62"/></svg>
