<svg xmlns="http://www.w3.org/2000/svg" viewBox="0 0 27 27"><defs><style>.cls-2{fill:none;stroke-miterlimit:10;stroke-width:1.5px;}</style></defs><path d="M22,2.57H5A2.44,2.44,0,0,0,2.57,5V22A2.43,2.43,0,0,0,5,24.43h8.5v-8.5H11.07v-3H13.5V10.43C13.5,7.81,15,6,18.07,6h2.19V9.13H18.81a1.6,1.6,0,0,0-1.67,1.75v2.05h3.12l-.69,3H17.14v8.5H22A2.43,2.43,0,0,0,24.43,22V5A2.44,2.44,0,0,0,22,2.57Z"/><path class="cls-2" d="M22,.84H5A4.16,4.16,0,0,0,.84,5V9.06m16.3,17.1H22A4.16,4.16,0,0,0,26.16,22V12.28"/></svg>
