<svg xmlns="http://www.w3.org/2000/svg" viewBox="0 0 22.38 27"><defs><style>.cls-2{fill:none;stroke-miterlimit:10;stroke-width:1.5px;}</style></defs><path d="M20.28,24.41H15.17a.81.81,0,0,1-.81-.81V3.28a.81.81,0,0,1,.81-.81h5.11a.81.81,0,0,1,.81.81V23.6A.81.81,0,0,1,20.28,24.41Zm-11.46,0H3.71a.81.81,0,0,1-.81-.81V3.28a.81.81,0,0,1,.81-.81H8.82a.81.81,0,0,1,.81.81V23.6A.81.81,0,0,1,8.82,24.41Z"/><path class="cls-2" d="M12.75,3.28V23.6A2.43,2.43,0,0,0,15.17,26h5.11M8.82.86H3.71A2.43,2.43,0,0,0,1.29,3.28v16.6"/></svg>
