<svg xmlns="http://www.w3.org/2000/svg" viewBox="0 0 30.45 18"><defs><style>.cls-2{fill:none;stroke-miterlimit:10;stroke-width:1px;}</style></defs><path d="M10,7a5.76,5.76,0,1,0,6.66-5.69q-.56-.05-1.14-.06A5.76,5.76,0,0,0,10,7Z"/><path d="M20.44,2.09a6.78,6.78,0,1,1-8.76-.5A14.08,14.08,0,0,0,2,8.66c4.4,8,13.18,7.45,13.18,7.45,5.89,0,11-3.06,13.18-7.45A13.74,13.74,0,0,0,20.44,2.09Z"/><path class="cls-2" d="M15.58-.87m13.83,9A15,15,0,0,0,20.83.93M2.43,5.73A13.2,13.2,0,0,0,.87,8.1l-.29.58.31.57c4.23,7.7,12.3,8.09,13.88,8.09h.41"/></svg>
