<svg xmlns="http://www.w3.org/2000/svg" viewBox="0 0 34.47 27"><defs><style>.cls-2{fill:none;stroke-miterlimit:10;stroke-width:1.5px;}</style></defs><path d="M17.23,2.65c-13.79,0-14,1.23-14,10.8s.24,10.8,14,10.8,14-1.23,14-10.8S31,2.65,17.23,2.65Zm4.5,11.27-6.3,2.94a.65.65,0,0,1-1-.64V10.68a.65.65,0,0,1,1-.64L21.73,13C22.28,13.24,22.28,13.66,21.73,13.92Z"/><path class="cls-2" d="M17.23,26c7.22,0,11.06-.33,13.29-2.21C33,21.68,33,18.23,33,13.45M17.23.93h0C10,.93,6.18,1.27,3.95,3.15,1.49,5.21,1.49,8.67,1.49,13.45"/></svg>
